<?xml version="1.0" encoding="utf-8"?>
<!-- Generator: Adobe Illustrator 28.4.1, SVG Export Plug-In . SVG Version: 6.00 Build 0)  -->
<svg version="1.2" baseProfile="tiny" id="Layer_1" xmlns="http://www.w3.org/2000/svg" xmlns:xlink="http://www.w3.org/1999/xlink"
	 x="0px" y="0px" viewBox="0 0 430.48 405" overflow="visible" xml:space="preserve">
<g>
	<circle fill="#FFFFFF" cx="216.24" cy="219" r="178"/>
	<circle id="Fondo" fill="#1D2F47" cx="214.13" cy="215.46" r="166.86"/>
	<g id="Lineasblancas">
		<path fill="none" stroke="#FFFFFF" stroke-width="5.0672" stroke-miterlimit="10" d="M214.78,34.66c0.4-0.01,0.79-0.01,1.19-0.01
			h0.32"/>
		<path fill="none" stroke="#FFFFFF" stroke-width="5.0672" stroke-miterlimit="10" d="M218.68,34.67
			c30.64,0.45,59.43,8.47,84.6,22.3c-5.06,6.05-10.84,11.57-17.25,16.45c-4.75,3.63-9.85,6.9-15.23,9.77
			c-8.64,4.62-18.05,8.22-28,10.59c-9.14,2.2-18.75,3.36-28.66,3.36c-9.65,0-19.01-1.1-27.94-3.18c-9.5-2.22-18.5-5.52-26.83-9.78
			c-5.62-2.86-10.95-6.16-15.91-9.84c-6.39-4.73-12.2-10.09-17.29-15.98c24.98-14.24,53.67-22.71,84.26-23.61"/>
		<path fill="none" stroke="#FFFFFF" stroke-width="5.0672" stroke-miterlimit="10" d="M396.14,192.49
			c-1.72-13.16-4.86-25.88-9.26-38v-0.01c-7.28-20.11-18.01-38.55-31.47-54.64c-1.59-1.9-3.21-3.76-4.86-5.58
			c-13.53-14.9-29.49-27.54-47.27-37.28c-25.17-13.82-53.97-21.85-84.6-22.3"/>
		<path fill="none" stroke="#FFFFFF" stroke-width="5.0672" stroke-miterlimit="10" d="M277.64,387.38
			c10.59-13.1,19.8-27.13,27.45-41.92c1.29-0.34,2.57-0.7,3.85-1.06c0.53-0.15,1.04-0.3,1.55-0.46c1.27-0.36,2.53-0.74,3.78-1.12
			c1.45-0.45,2.89-0.9,4.31-1.37c0.12-0.04,0.23-0.07,0.34-0.11c1.43-0.47,2.85-0.95,4.25-1.44c0.76-0.26,1.52-0.53,2.27-0.8
			c1.39-0.5,2.77-1,4.13-1.53c1.14-0.43,2.25-0.86,3.36-1.31c0.44-0.16,0.87-0.33,1.3-0.52c1.15-0.46,2.28-0.92,3.41-1.4
			c1.32-0.57,2.62-1.14,3.91-1.71c1.05-0.46,2.1-0.93,3.13-1.42c0.49-0.22,0.96-0.45,1.45-0.68c1.92-0.9,3.79-1.82,5.64-2.78
			c0.92-0.47,1.82-0.94,2.72-1.42"/>
		<path fill="none" stroke="#FFFFFF" stroke-width="5.0672" stroke-miterlimit="10" d="M216.29,34.65c-0.25,0.16-0.51,0.33-0.76,0.5
			c-1.06,0.7-2.13,1.41-3.18,2.14c-13.88,9.45-26.78,20-38.5,31.51c-5.05,4.96-9.87,10.08-14.47,15.38
			c-13.88,15.99-25.67,33.48-34.99,52.16c-2.12,4.23-4.1,8.51-5.96,12.86c-7.03,16.47-12.19,33.76-15.25,51.66
			c-2.15,12.56-3.26,25.41-3.26,38.5c0,9.93,0.64,19.74,1.89,29.38c3.23,24.91,10.51,48.74,21.26,70.92"/>
		<path fill="none" stroke="#FFFFFF" stroke-width="5.0672" stroke-miterlimit="10" d="M305.1,345.46
			c12.16-23.49,20.41-48.91,24.01-75.6c1.35-10,2.04-20.18,2.04-30.5c0-12.96-1.09-25.69-3.2-38.13
			c-3.43-20.28-9.56-39.77-18.04-58.18c-1.23-2.66-2.5-5.28-3.82-7.88c-9.43-18.63-21.3-36.06-35.28-51.98
			c-4.44-5.08-9.1-9.99-13.97-14.76c-12-11.73-25.2-22.46-39.45-32.03c-0.62-0.42-1.24-0.83-1.85-1.25
			c-0.25-0.16-0.5-0.32-0.75-0.49"/>
		<path fill="none" stroke="#FFFFFF" stroke-width="5.0672" stroke-miterlimit="10" d="M53.18,297.27l0.01,0.01
			c0,0.01,0.01,0.01,0.01,0.02c0.51,0.53,1.02,1.07,1.54,1.6c0.43,0.44,0.85,0.86,1.29,1.3c0.43,0.44,0.86,0.86,1.31,1.28
			c0.89,0.84,1.79,1.68,2.72,2.51c0.31,0.29,0.63,0.58,0.94,0.86c0.15,0.13,0.29,0.26,0.45,0.39c0.28,0.26,0.59,0.52,0.88,0.77
			c0.29,0.26,0.59,0.52,0.89,0.77c0.61,0.52,1.22,1.03,1.83,1.53c1.23,1,2.48,2.01,3.77,2.99c0.87,0.67,1.74,1.33,2.65,1.97
			c0.43,0.32,0.86,0.64,1.3,0.94c0.67,0.49,1.35,0.96,2.03,1.43c0.69,0.48,1.38,0.95,2.07,1.41c0.7,0.47,1.4,0.93,2.11,1.39
			c2.39,1.55,4.85,3.06,7.4,4.53c0.2,0.12,0.41,0.24,0.62,0.36c1.36,0.78,2.74,1.54,4.13,2.3c0.31,0.17,0.63,0.33,0.94,0.51
			c1.48,0.79,2.97,1.56,4.49,2.32c0.67,0.34,1.35,0.68,2.03,1c1.53,0.75,3.09,1.49,4.66,2.21c1.49,0.68,2.99,1.35,4.51,2.01
			c1.51,0.66,3.04,1.3,4.58,1.92c0.87,0.35,1.75,0.71,2.63,1.05c0.5,0.19,0.97,0.39,1.47,0.57c1.09,0.42,2.19,0.83,3.29,1.24
			c1.1,0.42,2.22,0.81,3.33,1.21c8.11,16.76,14.88,27.17,26.69,41.84"/>
		<path fill="none" stroke="#FFFFFF" stroke-width="5.0672" stroke-miterlimit="10" d="M49.12,292.72"/>
		<path fill="none" stroke="#FFFFFF" stroke-width="5.0672" stroke-miterlimit="10" d="M49.12,292.72"/>
		<path fill="none" stroke="#FFFFFF" stroke-width="5.0672" stroke-miterlimit="10" d="M123.05,339.66
			c-1.11-0.4-2.23-0.79-3.33-1.21c-1.1-0.41-2.2-0.82-3.29-1.24c-0.5-0.18-0.97-0.37-1.47-0.57c-0.88-0.34-1.76-0.7-2.63-1.05
			c-1.54-0.62-3.07-1.26-4.58-1.92c-1.52-0.66-3.02-1.33-4.51-2.01c-1.57-0.72-3.13-1.46-4.66-2.21c-0.68-0.32-1.36-0.66-2.03-1
			c-1.52-0.76-3.01-1.53-4.49-2.32c-0.31-0.17-0.63-0.33-0.94-0.51c-1.4-0.76-2.78-1.52-4.13-2.3c-0.21-0.12-0.42-0.24-0.62-0.36
			c-2.54-1.47-5.01-2.98-7.4-4.53c-0.71-0.46-1.41-0.92-2.11-1.39c-0.69-0.46-1.38-0.93-2.07-1.41c-0.68-0.47-1.36-0.94-2.03-1.43
			c-0.44-0.3-0.87-0.62-1.3-0.94c-0.9-0.64-1.77-1.3-2.65-1.97c-1.29-0.98-2.54-1.99-3.77-2.99c-0.62-0.5-1.23-1.01-1.83-1.53
			c-0.3-0.25-0.6-0.51-0.89-0.77c-0.29-0.25-0.6-0.51-0.88-0.77c-0.15-0.12-0.29-0.25-0.45-0.39c-0.31-0.28-0.63-0.57-0.94-0.86
			c-0.92-0.83-1.82-1.67-2.72-2.51c-0.45-0.42-0.88-0.84-1.31-1.28c-0.44-0.44-0.86-0.86-1.29-1.3c-0.52-0.53-1.03-1.07-1.54-1.6
			c0-0.01-0.01-0.01-0.01-0.02l-0.01-0.01"/>
		<path fill="none" stroke="#FFFFFF" stroke-width="5.0672" stroke-miterlimit="10" d="M34.94,217.34
			c-0.24-0.37-0.49-0.76-0.72-1.15c0.02-21.67,3.84-42.45,10.82-61.72c6.98-19.29,17.15-37.06,29.86-52.68l0.01-0.01
			c1.4-1.73,2.83-3.43,4.31-5.11c13.35-15.24,29.22-28.24,46.95-38.33c24.98-14.24,53.67-22.71,84.26-23.61
			c0.65,0.84,1.29,1.68,1.92,2.54c0.73,0.99,1.46,2.01,2.19,3.04c5.61,7.96,10.88,16.64,15.77,25.97
			c4.51,8.62,8.69,17.81,12.5,27.47c4.82,12.26,9.06,25.33,12.63,39.05c1.65,6.34,3.16,12.84,4.52,19.47
			c4.34,21.12,7.13,43.54,8.17,66.85c0.29,6.67,0.45,13.42,0.45,20.22c0,16.27-0.86,32.18-2.5,47.59c-2.54,23.9-6.97,46.61-13,67.63
			"/>
		<path fill="none" stroke="#FFFFFF" stroke-width="5.0672" stroke-miterlimit="10" d="M32.56,224"/>
		<path fill="none" stroke="#FFFFFF" stroke-width="5.0672" stroke-miterlimit="10" d="M396.14,192.49
			c-1.72-13.16-4.86-25.88-9.26-38v-0.01c-7.28-20.11-18.01-38.55-31.47-54.64c-1.59-1.9-3.21-3.76-4.86-5.58
			c-13.53-14.9-29.49-27.54-47.27-37.28c-25.17-13.82-53.97-21.85-84.6-22.3c-0.44,0.57-0.87,1.15-1.3,1.72
			c-0.96,1.29-1.91,2.59-2.85,3.93c-5.67,8.01-10.98,16.77-15.88,26.19c-4.5,8.61-8.65,17.79-12.46,27.44
			c-5.07,12.9-9.49,26.67-13.15,41.18c-1.44,5.67-2.76,11.44-3.96,17.33c-4.28,20.91-7.05,43.1-8.11,66.17
			c-0.3,6.84-0.47,13.75-0.47,20.72c0,16.01,0.83,31.68,2.43,46.87c2.44,23.33,6.68,45.54,12.46,66.17"/>
		<path fill="none" stroke="#FFFFFF" stroke-width="5.0672" stroke-miterlimit="10" d="M214.78,34.66c0.4-0.01,0.79-0.01,1.19-0.01
			h0.32"/>
		<path fill="none" stroke="#FFFFFF" stroke-width="5.0672" stroke-miterlimit="10" d="M218.68,34.67
			c30.64,0.45,59.43,8.47,84.6,22.3c17.78,9.75,33.74,22.39,47.27,37.28c-0.42,0.71-0.84,1.41-1.28,2.1
			c-9.59,15.25-24.53,28.57-43.19,38.81c-2.89,1.59-5.86,3.11-8.92,4.54c-11.36,5.34-23.87,9.61-37.21,12.59
			c-14.41,3.24-29.82,5-45.81,5c-15.72,0-30.86-1.69-45.06-4.82c-10.97-2.41-21.37-5.69-31.04-9.7c-4.73-1.97-9.29-4.1-13.66-6.43
			c-18.79-9.92-33.97-22.89-43.97-37.83c-0.41-0.61-0.8-1.22-1.19-1.82c13.35-15.24,29.22-28.24,46.95-38.33
			c24.98-14.24,53.67-22.71,84.26-23.61"/>
		<path fill="none" stroke="#FFFFFF" stroke-width="5.0672" stroke-miterlimit="10" d="M214.78,34.66c0.4-0.01,0.79-0.01,1.19-0.01
			h0.32"/>
		<path fill="none" stroke="#FFFFFF" stroke-width="5.0672" stroke-miterlimit="10" d="M218.68,34.67
			c30.64,0.45,59.43,8.47,84.6,22.3c17.78,9.75,33.74,22.39,47.27,37.28c1.65,1.82,3.27,3.69,4.86,5.58
			c13.46,16.09,24.19,34.54,31.47,54.64v0.01c-3.85,6.07-8.64,11.89-14.27,17.36c-11.62,11.34-26.81,21.3-44.67,29.38
			c-17.62,7.98-37.85,14.12-59.82,17.91c-16.52,2.87-34.03,4.4-52.15,4.4c-19.16,0-37.64-1.71-54.99-4.91
			c-21.21-3.88-40.75-9.96-57.81-17.78c-14.22-6.5-26.71-14.21-37.04-22.86c-8.64-7.23-15.76-15.11-21.08-23.51
			c6.98-19.29,17.15-37.06,29.86-52.68l0.01-0.01c1.4-1.73,2.83-3.43,4.31-5.11c13.35-15.24,29.22-28.24,46.95-38.33
			c24.98-14.24,53.67-22.71,84.26-23.61"/>
		<path fill="none" stroke="#FFFFFF" stroke-width="5.0672" stroke-miterlimit="10" d="M397.7,218.73c0,0,0,0,0,0.01
			c-13.79,20.7-37.86,38.44-68.59,51.12c-18.8,7.75-40.09,13.61-63.05,17.09c-15.74,2.4-32.26,3.67-49.28,3.67
			c-18.68,0-36.75-1.53-53.83-4.39c-22.3-3.72-42.94-9.7-61.15-17.49c-30.14-12.88-53.61-30.7-66.85-51.39
			c-0.24-0.37-0.49-0.76-0.72-1.15"/>
		<path fill="none" stroke="#FFFFFF" stroke-width="5.0672" stroke-miterlimit="10" d="M349.27,96.35c2.09,1.14,4.13,2.29,6.14,3.49
			c13.46,16.09,24.19,34.54,31.47,54.64v0.01c4.4,12.12,7.54,24.84,9.26,38"/>
		<path fill="none" stroke="#FFFFFF" stroke-width="5.0672" stroke-miterlimit="10" d="M74.9,101.8l0.01-0.01
			c1.79-1.11,3.63-2.21,5.49-3.28"/>
		<path fill="none" stroke="#FFFFFF" stroke-width="5.0672" stroke-miterlimit="10" d="M354.5,326.34
			c-0.89,0.48-1.79,0.95-2.72,1.42c-1.85,0.95-3.73,1.87-5.64,2.78c-0.49,0.23-0.96,0.46-1.45,0.68c-1.03,0.49-2.08,0.96-3.13,1.42
			c-1.29,0.58-2.59,1.15-3.91,1.71c-1.12,0.48-2.26,0.94-3.41,1.4c-0.43,0.18-0.86,0.35-1.3,0.52c-1.11,0.45-2.23,0.88-3.36,1.31
			c-1.37,0.53-2.75,1.03-4.13,1.53c-0.75,0.27-1.51,0.54-2.27,0.8c-1.4,0.49-2.82,0.97-4.25,1.44c-0.11,0.04-0.22,0.07-0.34,0.11
			c-1.42,0.47-2.86,0.92-4.31,1.37c-1.25,0.39-2.51,0.76-3.78,1.12c-0.51,0.15-1.02,0.3-1.55,0.46c-1.28,0.36-2.56,0.72-3.85,1.06
			c-16.26,4.39-33.73,7.5-52.04,9.11c-9.65,0.86-19.53,1.31-29.58,1.31c-16.6,0-32.7-1.21-48.08-3.49
			c-18.69-2.76-36.28-7.08-52.34-12.74c-1.11-0.4-2.23-0.79-3.33-1.21c-1.1-0.41-2.2-0.82-3.29-1.24c-0.5-0.18-0.97-0.37-1.47-0.57
			c-0.88-0.34-1.76-0.7-2.63-1.05c-1.54-0.62-3.07-1.26-4.58-1.92c-1.52-0.66-3.02-1.33-4.51-2.01c-1.57-0.72-3.13-1.46-4.66-2.21
			c-0.68-0.32-1.36-0.66-2.03-1c-1.52-0.76-3.01-1.53-4.49-2.32c-0.31-0.17-0.63-0.33-0.94-0.51c-1.4-0.76-2.78-1.52-4.13-2.3
			c-0.21-0.12-0.42-0.24-0.62-0.36c-2.54-1.47-5.01-2.98-7.4-4.53c-0.71-0.46-1.41-0.92-2.11-1.39c-0.69-0.46-1.38-0.93-2.07-1.41
			c-0.68-0.47-1.36-0.94-2.03-1.43c-0.44-0.3-0.87-0.62-1.3-0.94c-0.9-0.64-1.77-1.3-2.65-1.97c-1.29-0.98-2.54-1.99-3.77-2.99
			c-0.62-0.5-1.23-1.01-1.83-1.53c-0.3-0.25-0.6-0.51-0.89-0.77c-0.29-0.25-0.6-0.51-0.88-0.77c-0.15-0.12-0.29-0.25-0.45-0.39
			c-1.26-1.1-2.47-2.23-3.66-3.37c-0.45-0.42-0.88-0.84-1.31-1.28c-0.44-0.44-0.86-0.86-1.29-1.3c-0.52-0.53-1.03-1.07-1.54-1.6
			c0-0.01-0.01-0.01-0.01-0.02l-0.01-0.01"/>
		<path display="none" fill="none" stroke="#FFFFFF" stroke-width="5.0672" stroke-miterlimit="10" d="M397.71,216.39
			c0,0.78,0,1.56-0.01,2.34c0,0,0,0,0,0.01c-0.49,37.72-12.46,72.66-32.57,101.51c-0.01,0-0.01,0.01-0.01,0.01
			c-21.32,30.57-51.81,54.27-87.47,67.12c-12.68,4.58-26.02,7.78-39.83,9.44c-7.16,0.86-14.45,1.31-21.85,1.31
			c-8.44,0-16.75-0.58-24.89-1.69c-13.18-1.8-25.91-5.02-38.03-9.5c-43.6-16.09-79.32-48.4-99.84-89.63c0-0.01-0.01-0.01-0.01-0.02
			l-0.01-0.01c-11.76-23.6-18.53-50.12-18.93-78.18v-0.01c-0.01-0.9-0.02-1.79-0.02-2.7v-0.19c0.02-21.67,3.84-42.45,10.82-61.72
			c6.98-19.29,17.15-37.06,29.86-52.68l0.01-0.01c1.4-1.73,2.83-3.43,4.31-5.11c13.35-15.24,29.22-28.24,46.95-38.33
			c24.98-14.24,53.67-22.71,84.26-23.61c1.45-0.05,2.9-0.08,4.35-0.08c0.4-0.01,0.79-0.01,1.19-0.01h0.32c0.8,0,1.59,0.01,2.39,0.02
			c30.64,0.45,59.43,8.47,84.6,22.3c17.78,9.75,33.74,22.39,47.27,37.28c1.65,1.82,3.27,3.69,4.86,5.58
			c13.46,16.09,24.19,34.54,31.47,54.64v0.01c4.4,12.12,7.54,24.84,9.26,38C397.18,200.32,397.71,208.29,397.71,216.39z"/>
	</g>
	<g id="Edificios">
		<g>
			<path fill="#FAFAFB" d="M205.27,392.37l-2.82-0.25l-6.32-0.58l-5.06-0.33l-8.68-1.63l0.01-21.37
				c0.01-18.19,0.02-37.01-0.06-55.51c-0.01-3.52,1.21-5.76,4.08-7.49c6.32-3.79,12.49-7.67,19.01-11.79
				c2.43-1.53,4.88-3.07,7.37-4.63l3.88-2.43v106.84L205.27,392.37z"/>
			<path fill="#1D2F47" d="M214.14,290.94v99.54c-2.82-0.21-5.75-0.42-8.68-0.63c-0.93-0.08-1.86-0.16-2.79-0.24
				c-2.1-0.19-4.21-0.38-6.31-0.58c-1.66-0.11-3.31-0.22-4.97-0.33c-2.06-0.39-4.12-0.77-6.47-1.22c0-1.16,0-2.2,0-3.24
				c0-23.85,0.04-47.7-0.05-71.56c-0.01-2.49,0.6-3.96,2.85-5.3C196.45,302.15,205.03,296.65,214.14,290.94 M219.2,281.79
				l-7.76,4.86c-2.5,1.57-4.96,3.12-7.4,4.65c-6.5,4.1-12.65,7.97-18.94,11.74c-4.78,2.87-5.32,6.89-5.31,9.67
				c0.07,18.52,0.06,37.36,0.06,55.58c0,5.32-0.01,10.64-0.01,15.95v2.08v1.15v4.2l4.13,0.78l6.47,1.22l0.3,0.06l0.3,0.02l2.49,0.16
				l2.42,0.16l1.94,0.18l4.31,0.39l1.41,0.12l1.39,0.12l0.04,0l0.04,0l8.68,0.63l5.44,0.4v-5.45v-99.54V281.79L219.2,281.79z"/>
		</g>
		<g>
			<path fill="#FAFAFB" d="M228.21,390.21c-0.06-0.33-0.12-0.62-0.17-0.88c-0.13-0.62-0.25-1.2-0.25-1.88
				c-0.03-18.09-0.04-36.19-0.05-54.28c0-0.52,0.08-0.99,0.14-1.36c0.01-0.09,0.03-0.17,0.04-0.26l0.11-2.74l1.13-1.45l0.22-0.18
				c0.25-0.2,0.49-0.43,0.73-0.65c0.69-0.64,1.47-1.36,2.51-1.86c3.93-1.91,5.23-4.64,5.15-10.84c-0.22-17.88-0.22-36.06-0.21-53.64
				c0-9.75,0.01-19.49-0.03-29.24c-0.01-3.34,1.1-5.79,3.49-7.73c1.9-1.54,3.77-3.19,5.75-4.95c0.9-0.8,1.83-1.63,2.81-2.48
				l3.76-3.28l0.43,4.97c0.04,0.47,0.08,0.88,0.12,1.25c0.08,0.74,0.15,1.38,0.15,2.06l0.06,37.66
				c0.06,40.93,0.13,83.24,0.26,124.86c0,1.35-0.15,3.31-1.53,4.69c-1,1-2.41,1.49-4.31,1.49c-0.54,0-1.18,0.13-1.87,0.27
				c-0.39,0.08-0.78,0.16-1.18,0.22l-16.85,2.69L228.21,390.21z"/>
			<path fill="#1D2F47" d="M251.24,217.72c0.12,1.39,0.26,2.24,0.26,3.09c0.09,54.18,0.16,108.35,0.32,162.53
				c0.01,2.61-0.77,3.64-3.3,3.64c0,0,0,0,0,0c-1.15,0-2.29,0.33-3.44,0.52c-4.72,0.75-9.45,1.51-14.37,2.29
				c-0.18-1.04-0.38-1.69-0.38-2.34c-0.03-18.09-0.05-36.18-0.05-54.27c0-0.46,0.11-0.93,0.17-1.39c0.03-0.68,0.06-1.37,0.09-2.05
				c0.15-0.2,0.3-0.39,0.46-0.58c0.91-0.74,1.72-1.69,2.75-2.19c5.61-2.72,6.65-7.18,6.58-13.15c-0.35-27.61-0.15-55.23-0.24-82.85
				c-0.01-2.46,0.66-4.22,2.55-5.75C245.42,222.94,248.08,220.49,251.24,217.72 M255.42,207.34l-7.52,6.57
				c-0.99,0.86-1.92,1.69-2.83,2.5c-1.96,1.73-3.8,3.37-5.65,4.87c-3,2.43-4.45,5.6-4.43,9.71c0.03,9.75,0.03,19.67,0.03,29.26
				c0,17.57-0.01,35.74,0.21,53.63c0.07,5.71-1.09,7.25-3.72,8.53c-1.37,0.67-2.39,1.6-3.12,2.28c-0.23,0.21-0.44,0.41-0.61,0.55
				l-0.44,0.36l-0.35,0.45l-0.35,0.45l-0.11,0.14l-1,1.28l-0.07,1.62l-0.07,1.78c-0.01,0.03-0.01,0.06-0.02,0.09
				c-0.07,0.42-0.17,1.04-0.17,1.78c0.01,21.71,0.02,38.45,0.05,54.28c0,0.94,0.16,1.71,0.3,2.39c0.05,0.23,0.1,0.49,0.15,0.79
				l0.84,4.94l4.95-0.79l9.18-1.46l5.2-0.83c0.42-0.07,0.85-0.15,1.27-0.24c0.53-0.11,1.09-0.22,1.37-0.22
				c2.57,0,4.63-0.75,6.1-2.24c2.28-2.28,2.27-5.44,2.27-6.48c-0.13-41.57-0.19-83.84-0.26-124.72c-0.02-12.6-0.04-25.2-0.06-37.8
				c0-0.81-0.08-1.55-0.16-2.33c-0.04-0.35-0.08-0.74-0.12-1.2L255.42,207.34L255.42,207.34z"/>
		</g>
		<g>
			<path fill="#FAFAFB" d="M258.19,384.4c-0.06-0.3-0.14-0.61-0.22-0.91c-0.22-0.84-0.46-1.79-0.46-2.86
				c-0.01-53.19,0.01-109.43,0.05-167.15c0-0.96,0.19-1.83,0.37-2.6c0.06-0.28,0.13-0.56,0.18-0.85l0.19-1.08l26.65-17.56l1.21,0.46
				c0.29,0.08,0.78,0.23,1.27,0.61c0.84,0.65,1.79,1.27,2.8,1.92c2.61,1.69,5.31,3.43,6.75,6.2c1.45,2.78,1.21,6.03,0.98,9.17
				c-0.08,1.1-0.16,2.13-0.16,3.1v39.89c0,37.24-0.01,75.75,0.06,113.62c0,2.72-0.56,6.05-5.05,7.66c-1.45,0.52-2.87,1.23-4.37,1.98
				c-0.69,0.35-1.39,0.69-2.08,1.02l-8.52,3.85l-5.16,1.83l-13.91,4.45L258.19,384.4z"/>
			<path fill="#1D2F47" d="M285.25,194.23c0.21,0.08,0.46,0.12,0.63,0.25c3.06,2.36,7.22,4.16,8.85,7.28
				c1.55,2.99,0.53,7.35,0.53,11.1c0.01,51.17-0.03,102.34,0.06,153.51c0,2.8-0.76,4.33-3.37,5.27c-2.3,0.83-4.46,2.05-6.68,3.1
				c-2.79,1.26-5.59,2.52-8.38,3.79c-1.69,0.6-3.37,1.2-5.06,1.8c-3.71,1.19-7.43,2.38-11.14,3.56c-0.22-1.09-0.63-2.18-0.63-3.26
				c-0.01-55.72,0.01-111.43,0.05-167.15c0-1,0.33-2.01,0.5-3.01C268.81,205.06,277.03,199.65,285.25,194.23 M284.63,188.57
				l-2.17,1.43l-6.66,4.39l-17.99,11.85l-1.83,1.2l-0.38,2.16c-0.04,0.24-0.1,0.48-0.15,0.73c-0.19,0.85-0.43,1.91-0.43,3.15
				c-0.05,59.22-0.06,113.89-0.05,167.15c0,1.39,0.3,2.55,0.55,3.49c0.07,0.26,0.14,0.52,0.19,0.77l1.12,5.54l5.39-1.72l11.14-3.56
				l0.08-0.02l0.08-0.03l2.53-0.9l2.53-0.9l0.2-0.07l0.19-0.09l7.41-3.35l0.97-0.44l0.04-0.02l0.04-0.02
				c0.72-0.34,1.43-0.69,2.14-1.05c1.43-0.72,2.78-1.39,4.1-1.87c6.74-2.42,6.73-8.16,6.73-10.05
				c-0.07-37.79-0.06-76.22-0.06-113.39c0-13.37,0-26.74,0-40.12c0-0.88,0.07-1.87,0.15-2.92c0.24-3.33,0.52-7.11-1.26-10.52
				c-1.75-3.37-4.87-5.38-7.62-7.16c-0.96-0.62-1.87-1.21-2.62-1.79c-0.83-0.64-1.65-0.9-2.03-1.02L284.63,188.57L284.63,188.57z"/>
		</g>
		<g>
			<path fill="#FAFAFB" d="M301.64,364.95c-0.06-0.37-0.11-0.67-0.16-0.93c-0.1-0.54-0.19-1.02-0.19-1.57l0.03-29.71
				c0.03-22.36,0.05-44.73,0.05-67.09c0-3.25,0.83-5.71,2.7-7.98c2.02-2.45,3.89-5.16,5.7-7.78c0.69-1,1.39-2.01,2.09-3l1.46-6.59
				l3.16,2.45c1.59,1.23,3.16,2.44,4.71,3.63c4.86,3.75,9.46,7.29,14,11c1.65,1.35,2,3.86,2.01,5.73
				c0.06,16.82,0.06,33.93,0.06,50.47l0,10.22l0.01,3.37c0.01,3.42,0.02,6.96-0.06,10.45c-0.03,1.51-0.35,3.6-1.68,4.92
				c-5.45,5.44-11.62,11.6-19.11,16.23l-14.14,10.28L301.64,364.95z"/>
			<path fill="#1D2F47" d="M314.93,244.76c6.53,5.06,12.69,9.72,18.65,14.6c0.84,0.69,1.08,2.49,1.08,3.78
				c0.07,20.23,0.06,40.46,0.06,60.68c0,4.59,0.05,9.17-0.05,13.76c-0.02,1.08-0.24,2.49-0.93,3.18
				c-5.81,5.8-11.67,11.57-18.73,15.92c-3.48,2.53-6.95,5.05-10.86,7.9c-0.17-1.09-0.32-1.6-0.32-2.1
				c0.03-32.27,0.08-64.54,0.08-96.81c0-2.43,0.49-4.39,2.12-6.37c2.96-3.6,5.49-7.54,8.2-11.34
				C314.42,247.07,314.61,246.2,314.93,244.76 M311.72,235.85l-1.73,7.81l-0.49,2.19c-0.61,0.86-1.21,1.73-1.81,2.6
				c-1.87,2.7-3.63,5.25-5.58,7.62c-2.94,3.57-3.28,7.18-3.27,9.59c0,22.31-0.02,45-0.05,66.94c-0.01,9.95-0.02,19.91-0.03,29.86
				c0,0.79,0.12,1.42,0.23,2.03c0.04,0.23,0.09,0.51,0.15,0.85l1.28,8.19l6.71-4.87l5.33-3.87l5.39-3.91
				c7.7-4.78,13.96-11.02,19.49-16.54c1.92-1.92,2.38-4.68,2.42-6.65c0.08-3.53,0.07-7.09,0.06-10.53c0-1.11-0.01-2.23-0.01-3.34
				l0-10.31c0-16.51,0-33.59-0.06-50.39c-0.01-2.41-0.53-5.71-2.94-7.68c-4.56-3.73-9.16-7.28-14.04-11.03
				c-1.55-1.2-3.13-2.41-4.72-3.65L311.72,235.85L311.72,235.85z"/>
		</g>
		<g>
			<polygon fill="#EEEFF0" points="131.72,373.07 131.72,274.09 173.12,293.92 179.67,297.96 179.67,388.72 			"/>
			<path fill="#1D2F47" d="M134.25,278.11l37.66,18.03l5.23,3.23v85.85l-42.89-13.99V278.11 M129.18,270.07v8.05v93.12v3.68
				l3.5,1.14l42.89,13.99l6.64,2.17v-6.98v-85.85v-2.83l-2.41-1.48l-5.23-3.23l-0.23-0.14l-0.24-0.12l-37.66-18.03L129.18,270.07
				L129.18,270.07z"/>
		</g>
	</g>
	<g id="Sombras_edificios">
		<path fill="#B4C6CF" d="M271.82,380.34c0.01-55.27,0.05-110.54-0.04-165.81c-0.01-3.59,1.24-5.75,5.02-7.49c0,1.67,0,2.98,0,4.29
			c0,53.51-0.01,107.02,0,160.52c0,2.23,0.06,4.47,0.09,6.7C275.19,379.14,273.5,379.74,271.82,380.34z"/>
		<path fill="#B4C6CF" d="M147.61,375.2c0-26.31,0-52.62,0-79.03c4.45,1.02,4.94,1.43,4.94,4.55c0.02,24.93,0.01,49.87,0,74.8
			c0,0.59-0.07,1.17-0.11,1.76C150.83,376.59,149.22,375.89,147.61,375.2z"/>
		<path fill="#B4C6CF" d="M202.67,389.6c0-25.62,0-51.25,0.01-76.87c0-1.83-0.41-3.88,2.43-4.8c0.14,0.91,0.39,1.74,0.39,2.57
			c0,26.45-0.02,52.89-0.05,79.34C204.52,389.77,203.6,389.69,202.67,389.6z"/>
		<path fill="#B4C6CF" d="M191.38,388.7c2.42-0.49,2.09-2.35,2.09-4.11c0-22.07,0.02-44.14,0.03-66.21c0-1.84-0.32-3.84,2.44-4.87
			c0.17,0.96,0.44,1.79,0.44,2.61c0,24.3-0.02,48.6-0.04,72.9C194.7,388.92,193.04,388.81,191.38,388.7z"/>
		<path fill="#B4C6CF" d="M314.22,247.94c0.19-0.87,0.39-1.74,0.71-3.18c6.53,5.06,12.69,9.72,18.65,14.6
			c0.84,0.69,1.08,2.49,1.08,3.78c0.07,20.23,0.06,40.46,0.06,60.68c0,4.59,0.05,9.17-0.05,13.76c-0.02,1.08-0.24,2.49-0.93,3.18
			c-5.81,5.8-11.67,11.57-18.73,15.92c-0.25-1.72-0.7-3.43-0.7-5.15C314.25,316.99,314.24,282.47,314.22,247.94z"/>
		<path fill="#B4C6CF" d="M285.26,374.75c0.03-16.57,0.07-33.14,0.08-49.71c0.01-42.31,0.01-84.62,0-126.93
			c0-1.29-0.06-2.58-0.09-3.88c0.21,0.08,0.46,0.12,0.63,0.25c3.06,2.36,7.22,4.16,8.85,7.28c1.55,2.99,0.53,7.35,0.53,11.1
			c0.01,51.17-0.03,102.34,0.06,153.51c0,2.8-0.76,4.33-3.37,5.27C289.64,372.48,287.48,373.7,285.26,374.75z"/>
		<path fill="#FAFAFB" d="M271.82,380.34c-3.71,1.19-7.43,2.37-11.14,3.56c-0.01-29.84-0.03-59.69-0.04-89.53
			c-0.01-27.96-0.02-55.93-0.03-83.89c8.22-5.41,16.43-10.83,24.65-16.24c0.03,1.29,0.09,2.58,0.09,3.88
			c0,42.31,0.01,84.62,0,126.93c0,16.57-0.05,33.14-0.08,49.71c-2.79,1.26-5.59,2.52-8.38,3.79c-0.03-2.23-0.09-4.47-0.09-6.7
			c0-53.51,0-107.02,0-160.52c0-1.31,0-2.62,0-4.29c-3.77,1.74-5.02,3.91-5.02,7.49C271.87,269.79,271.83,325.07,271.82,380.34z"/>
		<path fill="#B4C6CF" d="M231.91,332.23v57.56l13.13-2.29V318.5C245.04,318.5,241.04,331.67,231.91,332.23z"/>
	</g>
	<g id="Silueta">
		<path fill="#1D2F47" d="M181.13,303.88c-21.64-8.88-24.36-16.37-25.98-20.85c-0.22-0.59-0.4-1.11-0.59-1.45l-0.07-0.13l-0.05-0.14
			c-2.43-6.31-1.52-13.07-0.85-18.01c0.2-1.51,0.38-2.82,0.42-3.84l0-0.08c-0.13-0.36-0.63-1.19-1.04-1.86
			c-2.73-4.5-8.34-13.72-7.46-36.52c-1.85-0.74-3.73-2.1-5.67-3.53c-2.05-1.5-4.53-3.31-6.36-3.74
			c-21.07,32.3-38.61,33.16-62.77,34.34c-1.96,0.1-3.96,0.19-6.02,0.31c-3.97,0.29-7.35,0.43-10.31,0.43
			c-8.87,0-20.81-1.15-22.3-11.03c-4.14-18.58-3.6-20.4,8.04-27.63l0.25-0.15l0.27-0.09c0.56-0.19,1.13-0.29,1.7-0.29
			c4.05,0,6.18,4.48,8.43,9.22c1.95,4.11,4.15,8.74,7.07,9.59c2.72-1,5.8-2.65,9.05-4.38c7.83-4.18,17.57-9.39,29.23-9.39
			c0.56,0,1.13,0.01,1.7,0.04c2.29-1.05,9.25-9.59,13.46-14.75c4.32-5.3,8.39-10.3,11.06-12.52c8.07-6.59,13.6-7.87,20.42-7.87
			c1.05,0,2.13,0.03,3.27,0.07c0.83-0.09,2.07-0.74,3.28-1.38c2.04-1.07,4.57-2.41,7.5-2.41c0.32,0,0.64,0.02,0.95,0.05
			c-0.55-1.14-1.3-2.54-2.14-4.09c-5.43-10.06-15.53-28.8-6.87-44.46l0.05-0.09l0.06-0.09c7.56-11.39,20.27-15.33,32.88-17.89
			c1.2-0.26,2.43-0.4,3.59-0.4c4.66,0,7.64,2.12,9.32,3.91c1.34,1.42,2.66,3.56,2.56,5.11l-0.02,0.35l-0.12,0.33
			c-0.08,0.22-0.25,0.64-0.48,1.19c-1.42,3.39-2.17,5.65-2.23,6.73c0.88,2.57,5.23,15.2,5.23,15.2l0.92,2.66c0,0-3,0.69-3.41,0.78
			c0.22,0.65,0.36,1.39,0.41,2.22c1.55,4.08,2.61,8.25,2.66,8.43l0.05,0.19l0.02,0.2c0.61,6.57,1.9,14.32,3.03,16.98
			c1.63-0.42,3.13-1.46,4.93-2.71c3.6-2.5,8.08-5.62,16.19-5.62c0.58,0,1.18,0.02,1.81,0.05c1.71,0.12,3.42,0.18,5.15,0.18
			c10.44,0,22.13-2.24,33.8-6.47c1.49-0.72,5.2-3.53,9.13-6.5c6.57-4.96,14.74-11.14,20.96-14.18
			c14.92-7.81,19.45-11.19,20.63-18.45c0.53-3.29,0.72-6.57,0.9-9.73c0.26-4.44,0.48-8.29,1.6-11.26c0.72-2.72,2.13-5.89,4.83-5.89
			c3.61,0,4.36,5.02,4.78,9.72l0.01,0.09l0,0.09c0.01,0.79,0.12,3.38,1.06,3.38c2.38,0,7.1-3.83,9.37-5.67l0.67-0.54
			c1.02-0.82,2.08-1.24,3.14-1.24c1.26,0,2.43,0.61,3.21,1.68c1.14,1.56,1.43,4.03,0.87,6.81l0.44-0.08l0.94,1.28
			c1.75,2.38,0.83,5.19-0.19,7.31c0.25,0.22,0.44,0.46,0.58,0.69c1.09,1.75,0.19,3.91-1.21,6.77c-2.54,4.82-36.55,38.84-36.9,39.18
			l-0.12,0.12c-27.66,24.07-54.6,29.53-74.28,33.52c-1.15,0.23-2.27,0.46-3.37,0.69c2.13,23.11-1.47,30.84-5.27,39.01
			c-1.82,3.91-3.7,7.96-4.91,14.09c-2.06,10.66-1,17.86-0.3,22.63c0.38,2.59,0.66,4.48,0.29,6.06c-0.67,3.47-6.83,7.27-23.89,17.01
			c-4.9,2.8-9.98,5.7-14.69,8.55l-1.09,0.66L181.13,303.88z"/>
		<path fill="#1D2F47" d="M323.18,95.1c0.89,0,1.77,1.87,2.26,7.41c0.07,4.36,1.54,5.88,3.59,5.88c3.54,0,8.83-4.52,11.63-6.78
			c0.58-0.47,1.1-0.68,1.56-0.68c1.74,0,2.41,3.17,1.19,6.96c-0.44,1.52-0.48,1.98,0.31,1.98c0.4,0,1.02-0.12,1.91-0.29
			c1.65,2.23-1.35,5.97-1.88,7.63c0.5-0.06,0.93-0.11,1.29-0.11c1.31,0,1.45,0.73-0.46,4.63c-1.88,3.56-27.6,29.72-36.41,38.5
			c-29.82,25.95-58.56,29.82-78.73,34.1c3.77,36.29-6.12,35.35-9.93,54.62c-3.19,16.54,0.85,25.26-0.01,28.66
			c-0.57,3.7-21.22,14.09-37.41,23.91c-24.09-9.88-23.44-17.65-25.29-21.15c-2.91-7.57-0.46-16.23-0.27-20.83
			c0.52-3.25-10.12-8.84-8.4-40.54c-0.01,0-0.02,0-0.03,0c-3.93,0-10.35-7.93-15.37-7.93c-0.2,0-0.4,0.01-0.6,0.04
			c-22.42,35.07-40.42,33.15-67.59,34.72c-3.61,0.26-7.02,0.42-10.16,0.42c-11.1,0-18.82-2.03-19.81-8.95
			c-4.04-18.09-3.46-18.59,6.89-25.02c0.3-0.1,0.6-0.15,0.88-0.15c5.39,0,7.37,17.79,15.68,18.9c9.63-3.25,21.92-13.86,38.1-13.86
			c0.67,0,1.34,0.02,2.02,0.06c4.66-0.91,19.81-22.87,25.82-27.88c7.65-6.24,12.68-7.28,18.8-7.28c1.07,0,2.17,0.03,3.32,0.07
			c3.08-0.18,6.56-3.79,10.72-3.79c1.52,0,3.13,0.48,4.85,1.79c3.44-0.48,0-1.81-1.09-4.22c-2.96-7.26-19.37-29.72-9.6-47.39
			c6.46-9.73,17.24-13.96,31.28-16.8c1.11-0.24,2.14-0.35,3.09-0.35c6.77,0,9.41,5.51,9.36,6.34c-0.35,1-3.01,6.68-2.84,9.19
			c0.4,1.18,5.36,15.59,5.36,15.59s-3.91,0.9-5.32,1.25c0.04,0,0.09,0,0.13,0c1.25,0,2.93,0.9,2.99,4.12
			c1.6,4.1,2.71,8.53,2.71,8.53s1.64,17.69,4.39,19.47c6.92-0.3,9.71-8.51,22.28-8.51c0.54,0,1.09,0.02,1.67,0.05
			c1.74,0.13,3.51,0.19,5.28,0.19c11.28,0,23.23-2.46,34.77-6.66c4.17-1.91,20.15-15.83,30.23-20.74
			c14.82-7.75,20.61-11.62,22.02-20.33c1.3-8.03,0.64-16.07,2.42-20.63C321.29,97.19,322.24,95.1,323.18,95.1 M323.18,90.04
			c-2.38,0-5.55,1.34-7.24,7.66c-1.21,3.31-1.44,7.29-1.71,11.89c-0.18,3.1-0.36,6.31-0.87,9.47c-0.95,5.91-4.2,8.71-19.3,16.61
			c-6.43,3.15-14.68,9.39-21.31,14.4c-3.25,2.45-7.26,5.49-8.6,6.19c-11.36,4.1-22.69,6.27-32.8,6.27c-1.67,0-3.32-0.06-4.92-0.17
			l-0.04,0l-0.04,0c-0.66-0.04-1.31-0.05-1.95-0.05c-8.9,0-13.95,3.51-17.64,6.07c-0.71,0.5-1.33,0.92-1.89,1.27
			c-0.78-3.27-1.62-8.61-2.09-13.7l-0.04-0.39l-0.1-0.38c-0.05-0.18-1.04-4.1-2.52-8.12l3.72-0.85l-1.83-5.33
			c-0.04-0.13-3.84-11.16-5.03-14.62c0.16-0.8,0.66-2.38,1.97-5.51c0.25-0.6,0.42-1,0.53-1.33l0.23-0.66l0.04-0.7
			c0.19-3.18-2.67-6.39-3.25-7c-2.86-3.03-6.83-4.7-11.17-4.7c-1.33,0-2.72,0.15-4.13,0.46c-8.28,1.68-14.54,3.67-19.7,6.25
			c-6.36,3.18-11.18,7.34-14.75,12.71l-0.11,0.17l-0.1,0.18c-9.33,16.88,1.2,36.4,6.86,46.89c0.12,0.23,0.25,0.46,0.36,0.68
			c-2.18,0.52-4.03,1.5-5.62,2.33c-0.72,0.38-1.79,0.94-2.28,1.08c-0.95-0.03-2.03-0.06-3.08-0.06c-7.21,0-13.4,1.41-22,8.42
			l-0.02,0.02l-0.02,0.02c-2.85,2.38-6.81,7.24-11.4,12.86c-3.69,4.53-9.7,11.9-12.23,13.79c-0.32-0.01-0.64-0.01-0.95-0.01
			c-12.29,0-22.34,5.37-30.42,9.68c-2.78,1.49-5.44,2.9-7.77,3.86c-1.7-1.26-3.71-5.5-4.87-7.93c-2.38-5-5.07-10.67-10.72-10.67
			c-0.84,0-1.69,0.14-2.51,0.42l-0.55,0.19l-0.49,0.31c-5.54,3.44-9.54,5.93-11.03,11.02c-1.32,4.53-0.23,10,1.83,19.24
			c0.56,3.54,2.63,8.22,9.22,10.85c3.83,1.53,8.78,2.24,15.58,2.24c3.01,0,6.44-0.14,10.49-0.43c2.04-0.12,4.02-0.21,5.96-0.31
			c23.55-1.15,42.3-2.08,63.6-33.73c1.29,0.74,2.88,1.9,3.9,2.65c1.54,1.13,3.05,2.23,4.58,3.06c-0.57,22.35,5.08,31.65,7.88,36.25
			c0.21,0.35,0.46,0.76,0.64,1.07c-0.07,0.84-0.21,1.88-0.37,3.06c-0.7,5.21-1.66,12.35,1,19.26l0.11,0.28l0.14,0.27
			c0.1,0.19,0.28,0.69,0.44,1.13c2.28,6.3,6.47,13.74,27.4,22.33l2.37,0.97l2.19-1.33c4.68-2.84,9.74-5.73,14.63-8.52
			c19.41-11.08,24.28-14.27,25.12-18.71c0.45-2.02,0.15-4.1-0.27-6.93c-0.67-4.59-1.69-11.54,0.28-21.79
			c1.15-5.8,2.88-9.54,4.72-13.49c3.66-7.86,7.43-15.96,5.69-38.05c0.38-0.08,0.77-0.16,1.16-0.23
			c19.95-4.04,47.28-9.58,75.44-34.09l0.13-0.11l0.12-0.12c0.34-0.34,34.55-34.49,37.31-39.72l0.04-0.07l0.03-0.07
			c1.3-2.65,2.9-5.92,1.26-8.92c0.93-2.45,1.44-5.59-0.68-8.46l-0.67-0.91c0.28-2.81-0.25-5.29-1.57-7.09
			c-1.26-1.73-3.18-2.72-5.25-2.72c-1.14,0-2.89,0.31-4.73,1.8l-0.68,0.55c-2.76,2.24-4.87,3.76-6.29,4.53c0-0.1-0.01-0.2-0.01-0.31
			l0-0.19l-0.02-0.19C330.13,98.16,329.41,90.04,323.18,90.04L323.18,90.04z"/>
	</g>
	<g id="Sombras_mono">
		<path id="Ojito" fill="#1D2F47" d="M190.47,131.3c-0.35,1.82-0.63,3.25-1.03,5.33c-3.28-1.13-6.49-2.24-9.86-3.4
			C182.96,130.15,186.6,130.93,190.47,131.3z"/>
		<g id="Pelo">
			<path fill="#B4C6CF" d="M160.34,156.35c-0.41,2.54-0.69,5.12-1.3,7.61c-0.17,0.71-1.32,1.17-2.01,1.75
				c-0.23-0.94-0.89-2.03-0.62-2.78c0.86-2.33,2.08-4.53,3.15-6.79C159.82,156.22,160.08,156.29,160.34,156.35z"/>
			<path fill="#B4C6CF" d="M159.32,141.93c-0.44,2.36-1.45,3.53-3.42,2.46c-0.62-0.34-1.21-1.99-0.9-2.53
				C156.32,139.47,157.69,141.9,159.32,141.93z"/>
			<path fill="#B4C6CF" d="M154.21,160.17c-1.57-2.38-4.53-4.22-3.22-7.47c2.07-5.15,2.44-5.22,7.9-4.95
				C158.23,152.26,155.01,155.74,154.21,160.17z"/>
		</g>
		<path id="Cuello" fill="#B4C6CF" d="M189.32,156.02c-5.94-0.25-11.88-0.49-18.7-0.77c2.58,1.84,4.54,3.21,6.48,4.63
			c3.31,2.42,6.55,4.96,9.94,7.27c1.73,1.18,1.94,2.34,1.02,4.12c-1.29,2.48-2.39,5.05-3.58,7.58c-0.98-1.96-1.78-4.04-2.97-5.86
			c-2.99-4.58-6.26-8.95-10.8-12.45c-0.62,9.06,1.74,17.56,4.59,25.89c-4.7-2.18-9.11-4.22-13.53-6.26c0.93-0.2,2.28-0.42,0.97-1.63
			c-4.42-4.1-3.1-8.35-0.8-12.88c0.98-1.94,1.27-4.23,1.91-6.35c0.63-2.07,1.3-4.13,1.9-6.05c-1.04-1.91-2.47-3.88-3.2-6.07
			c-0.56-1.69-0.03-3.24,2.35-3.87c3.7-0.99,6.11-3.67,7.64-7.21c1.56-3.59,3.68-6.77,7.57-8.27c-0.96,1.69-1.69,3.59-2.95,5.02
			c-2.1,2.39-2.29,4.94-1.6,7.81C177.41,148.24,181.95,153.4,189.32,156.02z"/>
		<path id="Serrato" fill="#B4C6CF" d="M230.17,215.38c-1.02,0.44-2.09,0.79-3.05,1.34c-2.97,1.69-5.9,3.45-8.68,5.08
			c-1.66-1.53,1.3-3.84-1.67-4.35c4.43-2.15,8.87-4.29,13.39-6.48C230.17,212.42,230.17,213.9,230.17,215.38z"/>
		<path id="Abdomen" fill="#B4C6CF" d="M166.05,220.36c-7.89,8.18-0.93,18.02,7.44,20.18c2.12,0.55,3.15-0.64,3.57-2.41
			c0.46-1.93,0.64-3.93,0.98-5.89c0.17-0.98,0.44-1.94,1.17-2.83c0.12,0.68,0.28,1.36,0.34,2.05c0.52,6.42,4.31,9.82,10.29,11.23
			c3.97,0.93,7.95,1.86,12.41,2.91c-1.64,0.32-2.98,0.76-4.33,0.82c-2.94,0.12-5.88,0.02-8.82,0.07c-4.11,0.07-6.82,2.14-7.43,5.61
			c-0.54,3.09,1.38,6.44,4.95,7.56c2.87,0.9,5.96,1.12,8.96,1.62c1.22,0.2,2.45,0.35,3.68,0.52c0.01,0.34,0.01,0.69,0.02,1.03
			c-3.14,0.28-6.28,0.57-9.43,0.85c-1.03,0.09-2.09,0.03-3.1,0.23c-5.23,0.99-5.54,1.4-5.22,6.32c0.22,3.37,2.52,5.52,6.3,5.83
			c0.69,0.06,1.39,0.01,2.09,0.01c0.07,0.24,0.13,0.48,0.2,0.72c-1.65,0.51-3.28,1.13-4.96,1.49c-2.17,0.47-3.07,1.52-3.01,3.88
			c0.17,6.46,0.08,12.93,0.1,19.4c-1.33,0.94-2.57,2.05-4,2.78c-2.82,1.44-3.79,3.46-3.76,6.72c0.17,18.81,0.08,37.62,0.08,56.43
			c0,5.63,0,11.27,0,17.76c-6.05-2.12-11.6-4.07-17.16-6.02c0.3-1.42,0.85-2.84,0.85-4.26c0.06-23.91,0.04-47.81,0.05-71.72
			c0-4.22,0.08-8.43,0.12-12.65c4.44,1.97,8.89,3.94,13.33,5.92c0.05-0.11,0.1-0.23,0.15-0.34c-0.9-0.54-1.77-1.15-2.71-1.62
			c-9.16-4.55-13.17-12.39-13.56-22.16c-0.17-4.24,0.75-8.52,1.04-12.8c0.06-0.83-0.3-1.81-0.77-2.52
			c-3.77-5.8-5.92-12.23-7.3-18.91c-1.38-6.68,1.71-12.54,8.04-15.05C159.66,221.88,162.91,221.25,166.05,220.36z M169.58,251.52
			c0.87,1.95,1.51,4.06,2.68,5.82c1.28,1.91,3.58,1.56,4.24-0.65c0.57-1.95,0.79-4.15,0.54-6.16c-0.29-2.37-2.2-3.61-4.18-3.38
			C170.33,247.44,170,249.16,169.58,251.52z M178.04,269.13c-0.08-0.78-0.07-1.14-0.16-1.48c-0.5-1.84-1.51-3.43-3.54-3.31
			c-2.08,0.12-3.04,1.73-2.71,3.76c0.31,1.92,0.64,3.93,1.46,5.67c0.99,2.09,2.59,2.03,3.53-0.02
			C177.34,272.17,177.66,270.42,178.04,269.13z"/>
		<path id="Brazo_izquierdo" fill="#B4C6CF" d="M47.27,232.85c6.52,0.61,22.78-0.1,29.06-1.44c5.72-1.22,11.37-2.74,17.06-4.07
			c5.74-1.34,10.66-4.14,14.88-8.23c4.72-4.56,9.53-9.03,14.19-13.66c0.91-0.9,1.29-2.33,1.91-3.52c1.78,1.12,3.64,2.12,5.31,3.37
			c3.79,2.83,4.04,3.76,1.44,7.81c-2.09,3.25-4.37,6.41-6.91,9.32c-6.86,7.84-14.53,14.86-24.42,18.56
			c-5.31,1.99-11.07,3.2-16.72,3.77c-9.08,0.92-18.25,1.02-27.39,1.43c-7.04,0.01-10.89,0-19.45-4.65
			C39.09,238.52,45.79,236.87,47.27,232.85z"/>
		<path id="Brazo_derecho" fill="#B4C6CF" d="M228.03,194.7c2.97-3.73,5.66-7.73,9.03-11.05c1.47-1.45,4.34-1.42,6.53-2.18
			c10.94-3.79,22.12-7.06,32.72-11.64c6.46-2.8,12.14-7.5,17.98-11.61c9.48-6.68,18.99-13.36,28.14-20.47
			c6.18-4.81,11.83-10.31,17.6-15.62c1.51-1.39,2.59-3.25,3.86-4.89c0.68-0.04,1.35-0.07,2.16-0.11c-0.02,4.05-2.82,6.75-5.02,9.18
			c-8.51,9.45-17.54,18.44-26.31,27.67c-16.61,17.49-36.95,28.5-60.1,34.52C245.82,190.78,236.9,192.64,228.03,194.7z"/>
	</g>
	<g id="Marco">
		<path fill="#1D2F47" d="M400.06,207.24l-12.32-2.74c0.22,3.62,0.33,7.26,0.33,10.92c0,3.31-0.09,6.59-0.27,9.87l12.31-2.74
			c0.09-2.36,0.13-4.75,0.13-7.13C400.24,212.68,400.18,209.95,400.06,207.24z"/>
		<path fill="#1D2F47" d="M209.26,21.67c1.96-8.83,4.65-20.88,4.65-20.88c0.24-1.05,1.74-1.05,1.99,0l6.65,29.95
			c96.05,3.65,173.33,80.58,177.51,176.49l-12.32-2.74c-2.61-42-20.22-81.13-50.23-111.15c-24.02-24.02-53.87-40.09-86.36-46.89
			c-8.46-1.77-17.09-2.91-25.85-3.4l0.19,0.87c0.23,0.89,0.34,1.8,0.34,2.73c-0.07,14.3-21.79,14.29-21.86,0
			c0-0.93,0.12-1.83,0.34-2.73l0.18-0.81c-42,2.61-81.13,20.21-111.15,50.23c-30.28,30.28-47.92,69.81-50.29,112.2l0.87-0.19
			c0.9-0.22,1.8-0.33,2.73-0.34c14.3,0.07,14.3,21.8,0,21.86c-0.93,0-1.83-0.11-2.73-0.34l-0.81-0.18
			c2.61,42,20.21,81.14,50.23,111.15c30.61,30.61,70.67,48.3,113.61,50.36c49.26,2.34,95.95-15.76,130.55-50.36
			c30.27-30.27,47.92-69.81,50.29-112.2l12.31-2.74c-3.65,96.05-80.59,173.32-176.49,177.5l-6.66,0.27
			c-0.84,0.03-1.67,0.04-2.51,0.01l-0.14-0.01l-6.01-0.22c-96.05-3.64-173.33-80.58-177.51-176.49l-30-6.67
			c-1.05-0.23-1.05-1.74,0-1.98l29.95-6.66c3.65-96.05,80.59-173.32,176.49-177.5C207.24,30.79,208.13,26.77,209.26,21.67z"/>
		<path fill="#1D2F47" d="M429.69,215.7l-29.93,6.66l-12.3,2.74l-0.88,0.19c-0.89,0.22-1.79,0.33-2.73,0.34
			c-14.29-0.07-14.28-21.77,0.01-21.84c0.93,0,1.82,0.12,2.72,0.34l0.82,0.18l12.31,2.74l29.98,6.67
			C430.74,213.96,430.74,215.47,429.69,215.7z"/>
	</g>
	<g id="Blancos">
		<path id="Cara" fill="#FAFAFB" d="M189.32,156.02c-7.38-2.62-11.91-7.78-13.74-15.37c-0.69-2.86-0.5-5.42,1.6-7.81
			c1.26-1.43,1.98-3.33,2.95-5.02c0,0-0.01,0.01-0.01,0.01c0.25-0.17,0.51-0.33,0.76-0.5c2.42-0.81,4.8-1.73,7.26-2.39
			c1.97-0.52,3.3,0.29,3.98,2.36c1.63,4.99,3.4,9.93,5.23,15.22c-1.56,0.35-3.11,0.7-5.48,1.22c3.81,0.42,2.72,3.28,3.56,5.06
			c1.01,2.14,1.49,4.54,2.43,7.61C194.75,156.27,192.04,156.15,189.32,156.02z M190.47,131.3c-3.72,0.29-7.51-1.15-10.89,1.93
			c3.37,1.16,6.58,2.27,9.86,3.4C189.84,134.55,190.12,133.12,190.47,131.3z"/>
		<path id="Pelo_00000082332625449682494900000000302241808385411975_" fill="#EEEFF0" d="M189.44,120.98
			c-1.97-0.93-3.98-1.78-5.9-2.8c-2.85-1.52-5.69-2.61-9.19-0.99c2.81,1.39,5.33,2.65,8.49,4.22c-3.48,1.24-6.1,1.88-9.09,1.04
			c-3.03-0.85-6.2-0.97-9.8,0.93c3.47,1.01,6.36,1.85,9.38,2.73c-2,3.3-4.51,5.17-8.67,4.04c-1.66-0.45-3.5-0.31-5.26-0.27
			c-0.52,0.01-1.03,0.57-2.3,1.32c4.26,1.53,7.79,2.79,11.25,4.03c-2.08,3.57-9.68,3.66-11.79-0.26c-0.46-0.85,0.05-2.23,0.13-3.47
			c-2.55-0.58-4.42,1.19-3.04,4.15c1.06,2.28,0.44,3.82-0.44,5.68c-1.3,2.75-2.5,5.54-3.82,8.47c-1.56-2.97-1.57-6.07-1.42-9.2
			c0.31-6.53,2.1-12.53,7.24-16.9c4.37-3.71,9.18-6.85,14.74-8.57c3.67-1.14,7.34-2.4,11.1-3.13c3.84-0.75,7.82-0.74,11.13,1.83
			c1.13,0.88,1.95,2.29,2.6,3.61c0.24,0.49-0.38,1.41-0.61,2.14c-0.65-0.36-1.6-0.56-1.89-1.11c-1.19-2.3-2.81-3.98-5.65-4.76
			c1.32,2.29,2.52,4.37,3.72,6.44C190.03,120.41,189.74,120.69,189.44,120.98z"/>
		<path id="Pecho" fill="#FAFAFB" d="M166.05,220.36c0.96-0.54,1.91-1.07,2.7-1.52c-4.73-0.53-9.51-0.74-14.15-1.65
			c-7.16-1.4-12.37-6.12-16.71-11.58c-3.53-4.43-7.94-5.36-13.1-5c-1.69,0.12-0.96,0.68-0.41,1.33c-0.62,1.19-1,2.62-1.91,3.52
			c-4.66,4.62-9.47,9.09-14.19,13.66c-4.23,4.09-9.14,6.88-14.88,8.23c-5.69,1.33-11.35,2.85-17.06,4.07
			c-6.28,1.34-20.9,2.74-29.06,1.44c0.31-0.87,0.22-3.83,0.54-4.7c10.21,1.7,16.91,0.05,20.19-1.37c9.2-5.41,18.66-9.93,29.77-9.5
			c1.33,0.05,3.06-1.14,4.03-2.25c6.11-6.98,12.15-14.04,18.05-21.2c6.59-7.99,14.64-12.54,25.32-11.64
			c1.37,0.12,2.94-0.43,4.21-1.08c4.04-2.08,7.98-4.42,12.41-0.94c4.41,2.04,8.82,4.08,13.53,6.26c-2.86-8.33-5.22-16.83-4.59-25.89
			c4.54,3.51,7.81,7.88,10.8,12.45c1.19,1.82,1.99,3.9,2.97,5.86c-0.74,1.74-1.48,3.48-2.22,5.22c0.23,0.17,0.47,0.34,0.7,0.51
			c4.5-2.56,6.53-7.4,9.46-11.37c0.89,0.33,1.71,0.52,2.41,0.92c4.97,2.79,9.37,2.33,14.15-1.05c5.3-3.75,11.49-6.17,18.16-5.6
			c8.23,0.7,16.27,0.49,24.13-2.25c0.22-0.08,0.46-0.08,0.69-0.13c6.82-1.58,13.73-2.64,19.43-7.48
			c9.68-8.22,20.23-15.19,31.63-20.9c3.75-1.88,7.27-4.33,10.56-6.94c1.72-1.36,3.44-3.47,3.9-5.53c1.15-5.11,2.22-10.4,2.11-15.59
			c-0.09-4.46,0.66-8.45,2.44-12.37c0.28-0.61,0.91-1.06,1.38-1.59l-0.07-0.07c0.25,0.26,0.51,0.52,0.76,0.78l-0.05-0.05
			c1.29,3.07,1.59,6.26,1.54,9.59c-0.04,2.63,1.96,3.81,4.62,3.36c3.95-0.67,6.54-3.46,9.4-5.88c0.99-0.84,2.25-1.37,3.38-2.05
			c0.36,1.41,1.01,2.82,1,4.23c-0.01,1.69-0.58,3.38-0.96,5.3c1.04-0.12,1.89-0.22,2.71-0.32c1.46,3.19-1.17,5.16-1.88,7.63
			c-1.28,1.64-2.35,3.5-3.86,4.89c-5.77,5.32-11.42,10.82-17.6,15.62c-9.15,7.12-18.66,13.79-28.14,20.47
			c-5.84,4.11-11.52,8.81-17.98,11.61c-10.6,4.59-21.77,7.85-32.72,11.64c-2.19,0.76-5.07,0.73-6.53,2.18
			c-3.37,3.32-6.06,7.32-9.03,11.05c0,0-0.13,0.1-0.13,0.1c-0.18,0.16-0.36,0.33-0.54,0.49c-3.6,4.02-6.96,8.28-10.85,11.99
			c-8.08,7.71-17.69,11.74-29.07,10.82c-0.47-0.04-0.94-0.04-1.41-0.01c-0.18,0.01-0.35,0.18-0.86,0.45
			c3.83,1.91,7.72,2.37,11.66,2.59c6.94,0.4,13.45-1.59,19.93-3.68c2.97,0.51,0.01,2.82,1.67,4.35c2.78-1.64,5.71-3.4,8.68-5.08
			c0.96-0.55,2.03-0.9,3.05-1.34c-0.03,0.46-0.07,0.91-0.1,1.37c-0.16,0.97-0.33,1.94-0.49,2.91c-0.67,5.66-2.56,10.98-5.25,15.91
			c-6.35,11.63-6.17,24.08-4.89,36.64c0.64,6.26,0.97,6.24-4.41,9.61c-1.77,1.11-3.59,2.13-5.72,3.39c0-4.46,0-8.45,0-12.44
			c-0.18-0.03-0.36-0.07-0.54-0.1c-1.06,2.72-2.11,5.45-3.17,8.17c-0.34,0.87-0.71,1.73-1.07,2.59c-2.03,4.78-5.2,8.4-9.96,10.8
			c-4.25,2.15-8.23,4.86-12.32,7.33c-0.01-6.47,0.08-12.94-0.1-19.4c-0.06-2.36,0.84-3.41,3.01-3.88c1.68-0.37,3.31-0.99,4.96-1.49
			c-0.07-0.24-0.13-0.48-0.2-0.72c-0.7,0-1.4,0.05-2.09-0.01c-3.77-0.31-6.08-2.46-6.3-5.83c-0.32-4.92-0.01-5.33,5.22-6.32
			c1.01-0.19,2.07-0.14,3.1-0.23c3.14-0.27,6.29-0.56,9.43-0.85c-0.01-0.34-0.01-0.69-0.02-1.03c-1.23-0.17-2.46-0.32-3.68-0.52
			c-3-0.5-6.08-0.72-8.96-1.62c-3.57-1.12-5.49-4.46-4.95-7.56c0.61-3.47,3.32-5.54,7.43-5.61c2.94-0.05,5.88,0.05,8.82-0.07
			c1.35-0.06,2.69-0.49,4.33-0.82c-4.46-1.04-8.44-1.97-12.41-2.91c-5.98-1.4-9.77-4.81-10.29-11.23c-0.06-0.69-0.22-1.36-0.34-2.05
			c-0.73,0.89-1,1.85-1.17,2.83c-0.34,1.96-0.53,3.96-0.98,5.89c-0.42,1.77-1.45,2.96-3.57,2.41
			C165.12,238.38,158.16,228.53,166.05,220.36z"/>
		<g id="Mano_izquierda">
			<path fill="#EEEFF0" d="M35.98,216.36c1.88-1.39,3.67-2.85,5.62-4.06c0.53-0.33,1.73-0.12,2.28,0.3c0.46,0.35,0.76,1.5,0.53,2.04
				C43.02,217.94,39.1,218.74,35.98,216.36z"/>
			<path fill="#EEEFF0" d="M34.23,228.05c2-0.44,3.31-0.71,4.61-1c1.37-0.31,2.73-0.83,4.11-0.87c1.04-0.03,2.81,0.27,3.03,0.88
				c0.66,1.79-1.25,1.85-2.32,2.33c-2.3,1.01-4.66,1.92-6.99,2.87c0.12,0.32,0.24,0.64,0.36,0.96c2.2-0.76,4.38-1.61,6.62-2.25
				c0.87-0.25,1.89-0.01,2.84,0.01c-0.53,0.77-0.9,1.79-1.62,2.28c-3.01,2.02-6.12,3.89-9.66,6.1c-0.39-1.67-0.79-3.19-1.09-4.72
				c-0.4-2.07-0.65-4.17-1.09-6.22c-1.16-5.46-1.02-5.9,4.35-7.29c2.12-0.55,4.38-0.65,6.59-0.75c0.66-0.03,1.35,0.64,2.03,0.98
				c-0.6,0.61-1.1,1.44-1.83,1.76c-1.05,0.46-2.27,0.51-3.41,0.8C38.42,224.5,36.19,225.31,34.23,228.05z"/>
		</g>
		<g id="Calugas">
			<path fill="#FAFAFB" d="M169.58,251.52c0.42-2.35,0.75-4.08,3.28-4.37c1.98-0.23,3.89,1,4.18,3.38c0.25,2.01,0.04,4.21-0.54,6.16
				c-0.65,2.21-2.96,2.56-4.24,0.65C171.09,255.58,170.45,253.47,169.58,251.52z"/>
			<path fill="#FAFAFB" d="M178.04,269.13c-0.38,1.29-0.7,3.05-1.42,4.62c-0.94,2.05-2.54,2.1-3.53,0.02
				c-0.82-1.73-1.14-3.74-1.46-5.67c-0.33-2.03,0.62-3.64,2.71-3.76c2.02-0.12,3.04,1.48,3.54,3.31
				C177.96,267.98,177.95,268.35,178.04,269.13z"/>
		</g>
	</g>
	<g id="Parches_azules">
		<polygon fill="#1D2F47" points="216.77,293.68 216.77,284.49 237.45,284.49 237.45,298.05 218.68,298.05 		"/>
		<rect x="216.77" y="348.89" fill="#1D2F47" width="10.34" height="14.3"/>
		<polygon fill="#1D2F47" points="230.27,227.8 233.39,215.46 245.7,217.72 236.76,228.98 		"/>
		<polygon fill="#1D2F47" points="216.77,380.34 216.77,390.48 227.11,389.85 227.11,379.29 		"/>
	</g>
</g>
</svg>
