<?xml version="1.0" encoding="UTF-8"?><svg id="a" xmlns="http://www.w3.org/2000/svg" viewBox="0 0 770.78 728.42"><defs><style>.b{fill:#eeeff0;}.c{fill:#fafafb;}.d{fill:#7f9fa6;}.e{fill:#b4c6cf;}.f{fill:#1d2f47;}</style></defs><path class="f" d="M118.04,592.48c-6.51-10.7-13.29-21.23-19.46-32.12-16.52-29.17-28.28-60.22-35.86-92.86-1.18-5.09-2.18-10.23-3.16-15.36-.85-4.46-1.07-8.81-5.13-12.34-2.1-1.83-2.64-6.07-2.89-9.3-.84-10.96-5.51-16.71-17.31-18.46-11.62-1.72-22.77-6.59-34.12-10.08-.03-.62-.07-1.24-.1-1.86,9.67-3.16,19.25-6.62,29.03-9.38,7.23-2.04,14.68-3.35,22.09-4.64,3.41-.6,4.15-2.23,4.42-5.46,1.21-14.38,2.28-28.79,4.32-43.06,4.04-28.36,12.69-55.46,24.23-81.62,18.18-41.22,44.36-76.78,77.04-107.64,33.4-31.54,72.13-54.3,115.24-69.89,27.56-9.96,55.84-16.24,85.13-17.7,3.6-.18,5.29-.87,6.18-5.03,3.19-14.92,7.03-29.7,10.8-44.49,.97-3.8,2.55-7.44,4.94-11.17,.84,2.28,1.93,4.51,2.46,6.86,3.66,16.11,7.37,32.21,10.67,48.39,.81,3.99,2.1,5.22,6.32,5.61,14.55,1.32,29.13,2.77,43.5,5.32,17.58,3.12,34.76,7.94,51.42,14.64,25.02,10.06,48.63,22.43,70.72,38.09,14.08,9.98,26.65,21.36,38.28,33.89,3.94,4.24,7.04,9.29,10.27,14.14,3.46,5.2,4.46,11,4.48,17.28,.02,5.32,1.84,10.6,2.17,15.94,.58,9.36,.57,18.75-2.44,27.83-5.63,3.41-6.55,5.68-4.16,9.94,13.83,24.6,24.7,50.24,28.06,78.62,.5,4.23-.49,7.06-3.42,9.97-12.19,12.1-26.4,21.2-41.72,28.68-4.59,2.24-9.4,4.05-14.49,6.21-3.57-23.55-7.47-46.06-15.48-67.57-5.68,2.8-5.42,6.46-4.27,11.37,4.12,17.69,7.53,35.55,11.41,53.3,1,4.57-.39,6.87-4.82,8.27-9.16,2.89-18.17,6.27-27.31,9.25-6.35,2.07-6.39,1.92-4.69,9.44,12.59-3.85,25.15-7.69,38.16-11.66,.37,3.29,1.08,6.56,1.04,9.83-.22,16.12-.38,32.24-1.16,48.33-.25,5.22,1.61,8.15,6.44,11.01,.87-9.34,2.25-18.01,2.37-26.7,.18-13.61-.36-27.23-.89-40.83-.15-3.86,.95-5.72,4.62-7.46,10.94-5.18,21.85-10.53,32.21-16.76,8.14-4.89,15.43-11.19,23.34-17.03,.28,3.18,.51,6.06,.77,8.93,1.98,21.69,4.27,43.38,3.01,65.21-.67,11.69-2.03,23.37-2.12,35.06-.04,4.95-1.55,7.87-5.46,10.15-10.29,5.99-20.43,12.25-30.89,17.91-4.76,2.57-8.09,5.13-5.68,11.89,8.78-4.49,17.6-8.95,26.37-13.51,4.72-2.45,9.35-5.08,14.02-7.63-3.36,12.77-6.19,25.71-10.22,38.27-4.15,12.93-9.57,25.44-14.2,38.22-1.19,3.27-2.05,6.83-2.16,10.28-.32,10.48-.21,20.96-.24,31.45,0,1.18,.21,2.36,1.53,4.14,3.92-5.25,8.05-10.35,11.73-15.76,23.72-34.82,40.06-72.94,50.39-113.69,4.71-18.57,7.01-37.46,6.02-56.63-.2-3.77,.56-6.5,3.74-8.53,1.05-.67,2.13-1.43,2.92-2.37,4.04-4.81,8.84-4.95,14.6-3.44,15.46,4.05,31.09,7.5,46.57,11.48,4.58,1.17,8.91,3.29,13.56,6.26-5.92,2.08-11.75,4.53-17.79,6.18-11.7,3.18-23.53,5.9-35.29,8.86-.75,.19-1.4,.74-2.1,1.12-.35,.72-.89,1.4-1.03,2.16-2.6,14.48-5.16,28.97-7.73,43.45-.33,.24-.37,.53-.1,.84-7.08,27.75-16.72,54.57-30.01,79.95-16.93,32.32-38.28,61.44-64.27,87.12-43.24,42.72-93.75,72.68-153.03,87.22-30.47,7.48-61.33,10.93-92.77,9.21-27.58-1.51-54.5-6.55-80.54-15.36-53.99-18.27-101.41-47.39-141.47-88.17-4.93-5.82-9.83-11.67-14.82-17.43-.66-.76-1.83-1.08-2.77-1.6l.06,.09c-1.34-2.07-2.67-4.13-4.01-6.2l.03,.03c-.85-.87-1.69-1.73-2.54-2.6l.06,.1c-.45-.46-.91-.91-1.36-1.37l.12,.15c-.46-1.05-.91-2.11-1.37-3.16Zm287.75-238.63s.24-.17,.24-.17c15.81-3.67,31.71-7,47.41-11.08,41.29-10.74,77.55-30.36,107.17-61.54,15.63-16.46,31.73-32.49,46.91-49.34,3.91-4.34,8.9-9.14,8.95-16.37-1.45,.08-2.65,.14-3.86,.2,1.27-4.4,5.96-7.92,3.35-13.6-1.46,.17-2.98,.35-4.83,.57,.67-3.42,1.69-6.43,1.71-9.45,.02-2.51-1.15-5.02-1.78-7.54-2.02,1.2-4.26,2.15-6.03,3.65-5.09,4.32-9.72,9.28-16.76,10.48-4.75,.81-8.3-1.3-8.24-5.99,.08-5.95-.45-11.62-2.75-17.1,5.34,1.3,5.92,5.73,6.51,10.07,.22,1.57,.03,3.2,.03,4.8,.41,.02,.82,.05,1.23,.07,1.63-2.07,3.25-4.13,4.88-6.2,1.48,1.26,2.95,2.52,5.62,4.78-.28-3.09-.02-5.29-.72-7.12-3.49-9.12-9.03-16.81-16.12-23.61-20.78-19.94-44.72-35.12-70.79-46.95-12.32-5.59-25.17-9.99-37.78-14.94-22.64-6.76-45.67-11.45-69.87-14.27,.72,8.67-.24,16.23-6.49,22.26,15.07,20.42,27.4,42.1,36.66,66.24-15.4,3.52-30.46,4.3-46.02,3.74v-62.61c-2.5-.28-4.65-.52-7.36-.83v63.5c-14.29-.08-27.97-.48-41.73-4.34,9.56-23.14,21.41-44.42,35.63-64.4-1.9-2.45-3.56-4.59-5.22-6.74-.83-3.46-1.66-6.91-2.49-10.37,.41-1.94,.83-3.89,1.31-6.17-2.12,0-3.57-.12-5,.02-25.7,2.56-50.94,7.55-75.22,16.37-48.28,17.53-89.88,45.2-124.73,83.09-30.13,32.77-51.57,70.41-65.02,112.75-7.95,25.03-12.36,50.67-14.68,76.79-.57,6.43-.4,11.05,6.54,13.03,5.42,10.39,10.85,20.78,16.24,31.19,.28,.53,.31,1.19,.45,1.79-.56,1.55-1.11,3.09-1.67,4.64-2.63,7.16-5.26,14.31-8.04,21.88,1.7,.17,3.5,.56,5.29,.48,16.29-.73,32.63-.92,48.83-2.55,10.09-1.02,20.35-3.19,29.82-6.73,17.63-6.59,31.31-19.11,43.54-33.09,4.53-5.17,8.6-10.82,12.32-16.61,4.63-7.21,4.19-8.86-2.57-13.92-2.99-2.23-6.3-4.02-9.47-6.02-.98-1.16-2.28-2.16,.73-2.37,9.21-.64,17.07,1.02,23.36,8.92,7.75,9.74,17.03,18.15,29.8,20.65,8.28,1.62,16.8,2,25.24,2.94-1.4,.79-3.11,1.75-4.81,2.7-5.6,1.58-11.38,2.71-16.77,4.85-11.28,4.48-16.8,14.92-14.33,26.84,2.47,11.92,6.3,23.39,13.02,33.72,.83,1.28,1.48,3.03,1.37,4.5-.53,7.62-2.17,15.25-1.86,22.82,.71,17.43,7.85,31.4,24.19,39.52,1.67,.83,3.22,1.92,4.83,2.89-.09,.2-.18,.41-.27,.61-7.92-3.52-15.85-7.03-23.77-10.55-11.24-5.7-22.49-11.41-34.51-17.5,0,3.23,0,5.29,0,7.36,0,46.28-.01,92.56,0,138.85q0,16.06,15.23,22.19c2.87,1.24,5.74,2.48,8.62,3.72,2.95,1.15,5.89,2.29,8.84,3.44,9.9,3.47,19.81,6.95,30.59,10.73,0-11.58,0-21.62,0-31.67,0-33.54,.15-67.08-.15-100.61-.05-5.81,1.68-9.42,6.71-11.98,2.56-1.3,4.77-3.28,7.13-4.95,7.3-4.39,14.38-9.23,21.97-13.07,8.48-4.29,14.13-10.73,17.75-19.25,.65-1.53,1.31-3.06,1.92-4.61,1.9-4.85,3.77-9.71,5.65-14.56,.32,.06,.65,.12,.97,.19v22.18c3.8-2.24,7.05-4.06,10.21-6.04,9.59-6.01,9-5.97,7.86-17.13-2.28-22.39-2.59-44.59,8.72-65.33,4.8-8.79,8.16-18.28,9.37-28.37,.29-1.73,.58-3.46,.87-5.18,.06-.82,.12-1.63,.18-2.45v-7.87c-8.07,3.91-15.98,7.73-23.88,11.56-11.56,3.74-23.17,7.27-35.54,6.57-7.02-.4-13.96-1.23-20.79-4.62,.9-.49,1.21-.78,1.53-.8,.83-.06,1.68-.05,2.51,.01,20.28,1.64,37.43-5.54,51.83-19.3,6.93-6.62,12.92-14.23,19.34-21.39,.32-.29,.64-.58,.96-.87Zm-202.48,287.34c.28,.16,.56,.33,.84,.49-.18-.26-.35-.52-.53-.78-3.86-7.28-7.6-14.64-11.63-21.83-3.92-7.01-8.14-13.86-12.23-20.78,8.25,3.29,16.31,7.29,24.82,9.61,5.08,1.39,8.45,3.34,10.04,8.17,1.53,4.66,4.51,5.77,9.42,3.98-17.89-40.57-30.63-82.44-36.8-126.51,15.22,4.34,29.76,8.49,44.41,12.67,1.5-9.45,.23-7.62-5.95-9.74-11.02-3.79-22.18-7.21-33.41-10.36-4.71-1.32-6.21-4.12-6.45-8.54-.19-3.46-.86-6.89-1.31-10.28-6.44,.46-6.41,.46-6.28,5.46,.06,2.41,.01,4.82,.01,7.46-1.35-.2-2.25-.12-2.96-.46-16.63-7.79-33.38-15.34-49.74-23.67-3.84-1.95-7.16-2.95-11.19-2.36-9.57,.43-19.13,.86-29.93,1.34,4.09,13.44,7.57,26.53,12.04,39.29,17.33,49.5,44.82,92.52,83.38,128.21,7.3,6.76,15.61,12.44,23.45,18.62Zm207-43.08c-.11,.83-.31,1.65-.31,2.48,.01,32.26,.03,64.51,.09,96.77,0,1.16,.37,2.31,.69,4.17,8.79-1.4,17.21-2.74,25.63-4.09,2.05-.32,4.09-.92,6.14-.92,4.51,0,5.9-1.83,5.89-6.48-.29-96.6-.4-193.2-.57-289.79,0-1.52-.25-3.03-.46-5.52-5.65,4.93-10.38,9.31-15.39,13.36-3.38,2.74-4.57,5.87-4.55,10.26,.18,49.24-.18,98.49,.43,147.72,.13,10.64-1.73,18.58-11.73,23.44-1.83,.89-3.27,2.59-4.9,3.91-.27,.35-.54,.7-.81,1.04-.05,1.22-.1,2.44-.15,3.65Zm150.79,44.36c12.58-7.75,23.04-18.03,33.4-28.38,1.24-1.23,1.62-3.74,1.67-5.67,.18-8.17,.09-16.35,.09-24.53,0-36.07,.01-72.13-.11-108.2,0-2.3-.43-5.51-1.93-6.74-10.64-8.7-21.62-17-33.26-26.03-.57,2.58-.92,4.13-1.26,5.68-4.83,6.78-9.34,13.81-14.62,20.23-2.91,3.53-3.78,7.03-3.78,11.36,.01,57.54-.09,115.08-.13,172.62,0,.9,.26,1.8,.57,3.74,6.97-5.07,13.17-9.57,19.37-14.08Zm-195.35,59.16c5.23,.38,10.46,.76,15.48,1.13v-177.48c-16.24,10.17-31.53,19.98-47.11,29.32-4.01,2.4-5.1,5.01-5.08,9.46,.17,42.53,.09,85.06,.09,127.59,0,1.85,0,3.69,0,5.77,4.18,.79,7.86,1.48,11.53,2.17,2.96,.2,5.91,.39,8.87,.59,3.75,.34,7.5,.68,11.25,1.03,1.66,.14,3.31,.29,4.97,.43Zm142.3-26.91c3.96-1.87,7.81-4.06,11.92-5.53,4.67-1.67,6.02-4.42,6.01-9.4-.16-91.24-.09-182.48-.1-273.72,0-6.7,1.82-14.47-.95-19.8-2.89-5.56-10.32-8.77-15.77-12.98-.31-.24-.74-.3-1.12-.44-14.65,9.65-29.3,19.31-43.96,28.96-.31,1.79-.9,3.58-.9,5.37-.08,99.34-.11,198.69-.09,298.03,0,1.94,.74,3.88,1.13,5.82,6.62-2.12,13.24-4.23,19.87-6.35,3.01-1.07,6.01-2.14,9.02-3.21,4.98-2.25,9.97-4.5,14.95-6.75ZM60.46,413.15c3.5-4.89,7.48-6.33,11.66-7.41,2.02-.52,4.2-.6,6.07-1.42,1.29-.57,2.18-2.06,3.26-3.14-1.21-.62-2.44-1.81-3.62-1.75-3.93,.18-7.96,.36-11.75,1.34-9.56,2.49-9.82,3.27-7.75,13.01,.78,3.67,1.22,7.41,1.94,11.1,.53,2.74,1.25,5.43,1.94,8.42,6.3-3.94,11.86-7.26,17.22-10.87,1.29-.87,1.94-2.69,2.89-4.07-1.69-.03-3.5-.46-5.06-.02-4,1.13-7.88,2.65-11.81,4.01-.22-.57-.43-1.14-.65-1.7,4.16-1.7,8.35-3.31,12.46-5.12,1.91-.84,5.31-.95,4.13-4.15-.4-1.08-3.54-1.62-5.4-1.56-2.45,.08-4.88,1.01-7.32,1.56-2.32,.52-4.64,1.01-8.21,1.79Zm3.13-20.84c5.55,4.24,12.54,2.82,15.03-3.07,.41-.97-.13-3.03-.95-3.65-.98-.74-3.11-1.11-4.06-.53-3.48,2.15-6.67,4.76-10.03,7.24Z"/><path class="b" d="M646.54,462.21c-4.67,2.55-9.3,5.17-14.02,7.63-8.77,4.56-17.6,9.02-26.37,13.51-2.42-6.76,.92-9.32,5.68-11.89,10.47-5.66,20.61-11.92,30.89-17.91,3.92-2.28,5.42-5.2,5.46-10.15,.09-11.69,1.45-23.37,2.12-35.06,1.26-21.84-1.03-43.52-3.01-65.21-.26-2.87-.5-5.75-.77-8.93-7.91,5.85-15.2,12.14-23.34,17.03-10.36,6.23-21.27,11.58-32.21,16.76-3.67,1.74-4.77,3.59-4.62,7.46,.53,13.6,1.07,27.23,.89,40.83-.11,8.69-1.49,17.36-2.37,26.7-4.82-2.86-6.69-5.8-6.44-11.01,.78-16.09,.94-32.22,1.16-48.33,.05-3.27-.67-6.54-1.04-9.83-13.01,3.97-25.57,7.81-38.16,11.66-1.7-7.52-1.65-7.37,4.69-9.44,9.14-2.98,18.14-6.36,27.31-9.25,4.43-1.4,5.82-3.7,4.82-8.27-3.88-17.75-7.29-35.6-11.41-53.3-1.14-4.91-1.41-8.58,4.27-11.37,8.01,21.51,11.91,44.02,15.48,67.57,5.09-2.17,9.89-3.97,14.49-6.21,15.32-7.48,29.53-16.59,41.72-28.68,2.93-2.91,3.92-5.74,3.42-9.97-3.36-28.38-14.23-54.02-28.06-78.62-2.4-4.26-1.47-6.53,4.16-9.94,.86,1.65,1.63,3.35,2.58,4.95,14.11,23.57,24.4,48.7,29.48,75.72,1.96,10.43,2.7,21.17,2.99,31.8,.74,26.98,1.29,53.97,1.1,80.95-.08,10.79-2.37,21.56-3.52,32.36-.5,4.66-3.55,6.85-7.38,8.47Z"/><path class="e" d="M144.64,624.46c-.61,.52-1.22,1.03-1.83,1.55-5.17-6.07-10.36-12.13-15.45-18.26-.42-.51-.22-1.53-.31-2.32,.93,.52,2.11,.84,2.77,1.6,5,5.76,9.89,11.61,14.82,17.43Z"/><path class="e" d="M123.1,599.32c1.34,2.07,2.67,4.13,4.01,6.2-3.15-.89-4.33-3.06-4.01-6.2Z"/><path class="e" d="M120.59,596.75c.85,.87,1.69,1.73,2.54,2.6-.85-.87-1.69-1.73-2.54-2.6Z"/><path class="e" d="M118.04,592.48c.46,1.05,.91,2.11,1.37,3.16-.46-1.05-.91-2.11-1.37-3.16Z"/><path class="e" d="M119.29,595.49c.45,.46,.91,.91,1.36,1.37-.45-.46-.91-.91-1.36-1.37Z"/><path class="c" d="M295.5,399.43c1.7-.96,3.41-1.92,4.81-2.7-8.44-.94-16.96-1.32-25.24-2.94-12.77-2.5-22.05-10.91-29.8-20.65-6.29-7.91-14.15-9.56-23.36-8.92-3.01,.21-1.71,1.21-.73,2.37-1.11,2.12-1.78,4.67-3.4,6.28-8.3,8.25-16.89,16.21-25.3,24.35-7.54,7.29-16.3,12.27-26.54,14.67-10.15,2.38-20.23,5.08-30.42,7.26-11.21,2.39-22.42,5.09-34.05,4,.56-1.55,1.11-3.09,1.67-4.64,5.84-2.54,11.68-5.07,17.52-7.61,16.41-9.65,33.27-17.71,53.09-16.94,2.37,.09,5.45-2.03,7.18-4.01,10.9-12.45,21.66-25.04,32.19-37.8,11.76-14.25,26.1-22.36,45.14-20.76,2.44,.21,5.24-.77,7.5-1.93,7.21-3.71,14.23-7.89,22.13-1.68,7.87,3.64,15.73,7.28,24.12,11.16-5.1-14.85-9.3-30-8.19-46.16,8.09,6.25,13.92,14.05,19.26,22.21,2.12,3.25,3.55,6.95,5.3,10.45-1.32,3.1-2.64,6.21-3.95,9.31,.42,.3,.83,.6,1.25,.9,8.03-4.56,11.65-13.19,16.87-20.27,1.59,.59,3.04,.93,4.29,1.64,8.86,4.97,16.7,4.15,25.24-1.88,9.46-6.68,20.48-11,32.39-9.98,14.67,1.25,29.01,.87,43.03-4,.39-.14,.83-.14,1.23-.23,12.16-2.81,24.47-4.7,34.64-13.33,17.26-14.66,36.08-27.09,56.4-37.26,6.68-3.35,12.96-7.72,18.83-12.38,3.07-2.43,6.14-6.19,6.96-9.85,2.06-9.12,3.96-18.55,3.77-27.81-.16-7.95,1.18-15.06,4.34-22.06,.49-1.09,1.63-1.89,2.46-2.83l-.13-.13c.45,.47,.91,.93,1.36,1.4l-.09-.09c2.31,5.48,2.84,11.16,2.75,17.1-.07,4.69,3.49,6.8,8.24,5.99,7.04-1.2,11.67-6.16,16.76-10.48,1.77-1.5,4-2.45,6.03-3.65,.64,2.51,1.8,5.03,1.78,7.54-.02,3.02-1.04,6.03-1.71,9.45,1.85-.22,3.37-.4,4.83-.57,2.61,5.69-2.08,9.2-3.35,13.6-2.27,2.93-4.19,6.25-6.88,8.73-10.29,9.48-20.36,19.29-31.38,27.86-16.32,12.69-33.27,24.59-50.18,36.5-10.41,7.34-20.53,15.72-32.05,20.7-18.9,8.18-38.82,14-58.33,20.76-3.91,1.35-9.03,1.31-11.65,3.89-6.01,5.92-10.81,13.06-16.11,19.7,0,0-.24,.17-.24,.17-.32,.29-.64,.58-.96,.87-6.42,7.16-12.41,14.77-19.34,21.39-14.41,13.76-31.55,20.94-51.83,19.3-.83-.07-1.68-.07-2.51-.01-.32,.02-.63,.31-1.53,.8,6.83,3.4,13.77,4.23,20.79,4.62,12.37,.7,23.98-2.83,35.54-6.57,5.29,.91,.01,5.03,2.97,7.76,4.96-2.92,10.18-6.06,15.47-9.07,1.71-.97,3.62-1.6,5.44-2.38-.06,.82-.12,1.63-.18,2.45-.29,1.73-.58,3.46-.87,5.18-1.2,10.09-4.57,19.58-9.37,28.37-11.32,20.74-11.01,42.94-8.72,65.33,1.14,11.16,1.73,11.12-7.86,17.13-3.16,1.98-6.41,3.8-10.21,6.04v-22.18c-.32-.06-.65-.12-.97-.19-1.88,4.85-3.76,9.71-5.65,14.56-.61,1.55-1.26,3.08-1.92,4.61-3.63,8.53-9.27,14.97-17.75,19.25-7.59,3.83-14.67,8.67-21.97,13.07-.02-11.53,.13-23.07-.17-34.6-.11-4.21,1.5-6.08,5.37-6.92,3-.65,5.9-1.76,8.85-2.67-.12-.43-.24-.86-.36-1.29-1.24,0-2.49,.09-3.72-.01-6.73-.56-10.84-4.39-11.23-10.4-.57-8.78-.01-9.51,9.31-11.27,1.8-.34,3.68-.24,5.52-.4,5.61-.49,11.21-1,16.81-1.51-.01-.61-.02-1.23-.03-1.84-2.19-.31-4.38-.57-6.56-.94-5.34-.89-10.85-1.28-15.97-2.88-6.37-1.99-9.8-7.95-8.83-13.47,1.08-6.19,5.91-9.88,13.25-10,5.24-.09,10.49,.1,15.72-.12,2.41-.1,4.79-.88,7.72-1.46-7.96-1.86-15.05-3.52-22.13-5.18-10.66-2.5-17.42-8.58-18.34-20.02-.1-1.22-.4-2.43-.6-3.65-1.3,1.59-1.78,3.31-2.09,5.05-.62,3.5-.94,7.06-1.75,10.5-.75,3.16-2.58,5.27-6.36,4.3-14.91-3.84-27.32-21.4-13.26-35.98Z"/><path class="b" d="M589.92,185.3c-1.63,2.07-3.25,4.13-4.88,6.2-.41-.02-.82-.05-1.23-.07,0-1.6,.18-3.23-.03-4.8-.6-4.33-1.17-8.77-6.51-10.07l.09,.09c-.45-.47-.91-.93-1.36-1.4l.13,.13c-1.03-1.29-2.05-2.58-3.27-4.12-.93,1.9-1.53,3.12-2.35,4.78-15.47-18.08-34.34-31-53.22-42.29-9.2,8.4-17.74,16.2-26.29,24.01,5.36,6.58,11.01,13.31,16.42,20.22,13.2,16.86,24.88,34.7,34.42,53.91,1.13,2.28,1.62,4.07-1.24,5.66-3.34,1.85-3.79-.67-4.98-2.6-8.5-13.68-16.58-27.66-25.75-40.88-7.95-11.47-17.16-22.07-25.14-32.19-15.4,5.97-29.51,11.44-43.96,17.05,12.06,30.64,20.18,62.52,26.16,95.42,7.6-1.49,14.43-2.82,21.26-4.16,.22,.39,.44,.78,.65,1.18-5.65,3.43-11.33,6.83-16.94,10.33-1.43,.9-2.8,2-3.94,3.25-2.35,2.56-6.65,3.55-7.87,1.2-1.38-2.65-2.89-2.05-5.04-1.85-22.28,2.12-44.56,4.25-66.87,6.04-3.97,.32-4.39,2.15-4.32,5.18,.01,.54-.4,1.08-.6,1.58h-5.49c-1.52-8.27,.61-6.77-7.88-7.08-2.9-.1-5.79-.25-8.63-.38-.65-6.67-.65-6.7,5.31-6.79,3.47-.05,6.94,0,10.34,0v-99.01c-2.19-.22-4.04-.42-5.9-.6-10.62-1.02-21.32-1.58-31.83-3.27-4.95-.8-7.52-.06-8.62,4.81-.23,1.01-.72,1.96-1.09,2.94q-2.08,5.63-8.77,4.58c1.52-4.71,3.03-9.4,4.47-13.84-14.01-5.41-27.53-10.63-41.66-16.1-11.1,11.89-21.64,25.34-30.79,39.78-8.91,14.06-17.09,28.57-25.71,43.07,1.95,1.47,3.13,2.7,4.58,3.4,5.52,2.67,11.07,5.27,16.69,7.7,6.41,2.76,6.45,2.67,4.64,10.28-9.68-4.01-19.28-7.99-28.93-11.99-.46,.54-.99,.95-1.23,1.48-15.25,33.19-27.39,67.39-33.08,103.62-.82,5.2-2.69,9.55-6.58,12.41-3.84-1.93-7.43-3.84-11.11-5.57-17.89-8.46-34.2-19.3-48.91-32.54,.48-3.46,.96-6.93,1.43-10.39,15.81,17.2,35.48,28.65,57.09,38.63,6.61-39.21,18.66-76.05,35.71-111.44-17.63-9.56-34.07-19.82-47.67-34.01,1.5-2.42,2.99-4.84,4.49-7.26,12.96,14.58,28.91,24.91,46.56,33.67,15.54-31.59,34.59-59.98,57.23-85.98-4.92-4.09-9.57-7.37-13.48-11.37-3.92-4.01-7.1-8.75-10.6-13.16,1.22-3.53,3.62-5.34,7.44-5.04,3.58,10.96,13.08,16.24,20.9,22.68,11.47-9.94,22.48-19.48,33.5-29.03,1.68,.95,3.37,1.91,5.05,2.86-10.89,9.77-21.84,19.49-32.05,32.22,13.53,5.05,25.93,9.68,38.03,14.2,1.13-1.37,1.66-1.79,1.89-2.34,9.16-21.38,20.59-41.49,33.6-60.73,1.21-1.8,1.59-4.15,2.36-6.25,.39-.4,.79-.8,1.18-1.2,1.66,2.14,3.32,4.28,5.22,6.74-14.22,19.99-26.08,41.27-35.63,64.4,13.76,3.86,27.44,4.26,41.73,4.34v-63.5c2.7,.3,4.86,.55,7.36,.83v62.61c15.56,.56,30.61-.22,46.02-3.74-9.26-24.13-21.59-45.82-36.66-66.24,6.25-6.02,7.21-13.59,6.49-22.26,24.2,2.82,47.24,7.51,69.87,14.27-3.48,.62-6.95,1.23-10.43,1.85,2.38,1.79,4.86,2.61,7.35,3.42,22.76,7.49,44.49,17.22,64.94,29.75,21.42,13.12,39.58,30.18,57.64,47.37,1.98,1.88,1.62,3.55,.28,5.44Zm-205.42-1.32v98.53c25.27,.33,49.8-2.3,74.2-6.78,.09-.99,.28-1.62,.18-2.19-5.37-31.17-13.54-61.57-24.76-91.16-1.08-2.84-2.45-2.55-4.7-2.32-9.98,1.03-19.97,1.88-29.96,2.76-4.96,.43-9.92,.78-14.96,1.17Zm93.78-28.21c-5.47-5.77-10.01-10.95-14.97-15.7-16.59-15.89-35.29-28.83-55.91-38.94-1.6-.79-3.75-.47-5.65-.66,.48,1.88,.87,3.78,1.47,5.62,.25,.76,.96,1.36,1.44,2.04,10.89,15.42,20.26,31.7,28.03,48.9,1.88,4.17,2.92,10.49,6.06,11.85,3.5,1.51,9.13-1.04,13.54-2.64,8.76-3.18,17.32-6.93,25.99-10.45Zm6.57-4.92c8.39-4.92,15.67-9.82,21.02-17.02,3.42-4.6,3.08-5.66-1.9-8.35-22.24-12-45.78-20.47-70.48-25.72-4.19-.89-8.5-1.16-12.76-1.72-.26,.55-.52,1.1-.78,1.66,24.27,13.6,45.91,30.5,64.89,51.16Z"/><path class="c" d="M484.09,684.68c-6.62,2.12-13.24,4.23-19.87,6.35-.03-53.21-.05-106.43-.08-159.64-.02-49.86-.04-99.72-.06-149.58,14.65-9.65,29.3-19.31,43.96-28.96,.06,2.3,.16,4.61,.16,6.91,0,75.44,.02,150.88,0,226.32,0,29.55-.09,59.09-.14,88.64-4.98,2.25-9.97,4.5-14.95,6.75-.06-3.98-.16-7.96-.16-11.95,0-95.41,0-190.81,0-286.22,0-2.34,0-4.67,0-7.64-6.73,3.1-8.95,6.97-8.94,13.36,.17,98.55,.1,197.1,.08,295.65Z"/><path class="e" d="M295.5,399.43c-14.06,14.58-1.65,32.14,13.26,35.98,3.78,.97,5.61-1.13,6.36-4.3,.82-3.44,1.14-7,1.75-10.5,.31-1.74,.79-3.45,2.09-5.05,.21,1.22,.5,2.43,.6,3.65,.93,11.44,7.68,17.51,18.34,20.02,7.09,1.66,14.18,3.32,22.13,5.18-2.93,.58-5.31,1.36-7.72,1.46-5.23,.22-10.48,.04-15.72,.12-7.33,.12-12.16,3.81-13.25,10-.97,5.52,2.46,11.48,8.83,13.47,5.12,1.6,10.63,1.99,15.97,2.88,2.18,.36,4.37,.63,6.56,.94,.01,.61,.02,1.23,.03,1.84-5.6,.5-11.21,1.02-16.81,1.51-1.84,.16-3.72,.06-5.52,.4-9.32,1.76-9.89,2.49-9.31,11.27,.39,6.01,4.5,9.84,11.23,10.4,1.23,.1,2.48,.01,3.72,.01,.12,.43,.24,.86,.36,1.29-2.94,.91-5.85,2.01-8.85,2.67-3.86,.84-5.48,2.71-5.37,6.92,.31,11.53,.15,23.06,.17,34.6-2.37,1.67-4.58,3.65-7.13,4.95-5.03,2.56-6.77,6.17-6.71,11.98,.3,33.53,.15,67.07,.15,100.61,0,10.05,0,20.09,0,31.67-10.78-3.78-20.69-7.25-30.59-10.73,.53-2.53,1.52-5.07,1.52-7.6,.1-42.63,.07-85.26,.09-127.88,0-7.52,.14-15.04,.21-22.56,7.92,3.52,15.85,7.03,23.77,10.55,.09-.2,.18-.41,.27-.61-1.61-.97-3.15-2.05-4.83-2.89-16.33-8.12-23.48-22.09-24.19-39.52-.31-7.57,1.33-15.2,1.86-22.82,.1-1.47-.54-3.22-1.37-4.5-6.72-10.34-10.55-21.8-13.02-33.72-2.47-11.92,3.06-22.36,14.33-26.84,5.38-2.14,11.16-3.26,16.77-4.85Zm6.29,55.56c1.56,3.48,2.69,7.25,4.78,10.37,2.28,3.4,6.39,2.79,7.56-1.16,1.02-3.47,1.4-7.39,.96-10.98-.52-4.23-3.92-6.43-7.45-6.02-4.5,.52-5.1,3.6-5.85,7.79Zm15.08,31.4c-.15-1.4-.13-2.04-.29-2.64-.88-3.27-2.69-6.12-6.3-5.91-3.72,.22-5.42,3.08-4.82,6.71,.56,3.43,1.14,7.01,2.6,10.1,1.76,3.72,4.62,3.62,6.29-.03,1.28-2.8,1.84-5.93,2.52-8.23Z"/><path class="d" d="M261.27,127.61c-3.82-.3-6.22,1.51-7.44,5.04-8.99,5.99-18.79,11.08-26.82,18.17-16.41,14.5-32.09,29.87-45.53,47.29-2.75,3.56-4.92,7.58-7.35,11.39-1.5,2.42-2.99,4.84-4.49,7.26-1.35,1.52-3.04,2.86-3.99,4.6-7.89,14.49-16.3,28.76-23.28,43.69-8.69,18.58-14.79,38.14-17.86,58.54-.48,3.46-.96,6.93-1.43,10.39-3.68,23.44-4.35,47.06-3.93,70.73,.04,2.07,1,4.12,1.53,6.18-5.84,2.54-11.68,5.07-17.52,7.61-.15-.6-.18-1.26-.45-1.79-5.4-10.4-10.82-20.79-16.24-31.19,.33-.96,.85-1.91,.95-2.9,.99-9.97,1.67-19.98,2.91-29.92,2.9-23.33,8.29-46.13,16.66-68.1,17.14-44.99,43.12-83.97,79.24-116.1,31.61-28.12,67.36-49.03,107.76-61.31,22.77-6.92,46.16-11.76,69.28-17.54,.83,3.46,1.66,6.91,2.49,10.37-.39,.4-.79,.8-1.18,1.2-2.34-2.17-4.53-1.01-6.78,.23-6.71,3.71-13.45,7.36-20.18,11.03-1.06-1.74-2.11-3.49-3.17-5.23,2.02-2.15,4.03-4.3,6.05-6.45-.3-.45-.61-.89-.91-1.34-28.14,3.54-53.86,13.99-78.3,28.15Z"/><path class="c" d="M340.68,699.59c-3.67-.69-7.35-1.38-11.53-2.17,0-2.08,0-3.92,0-5.77,0-42.53,.08-85.06-.09-127.59-.02-4.45,1.08-7.06,5.08-9.46,15.57-9.34,30.86-19.15,47.11-29.32v177.48c-5.02-.37-10.25-.75-15.48-1.13,.04-47.16,.08-94.31,.08-141.47,0-1.48-.44-2.96-.7-4.58-5.07,1.64-4.34,5.29-4.34,8.55-.02,45.69-.01,91.38-.01,137.07-3.75-.34-7.5-.68-11.25-1.03,.03-43.33,.07-86.65,.07-129.98,0-1.47-.48-2.94-.79-4.66-4.92,1.83-4.35,5.4-4.36,8.68-.03,39.35-.06,78.7-.06,118.05,0,3.12,.59,6.45-3.73,7.32Z"/><path class="e" d="M559.71,448.61c.34-1.55,.69-3.1,1.26-5.68,11.64,9.03,22.62,17.33,33.26,26.03,1.5,1.23,1.92,4.44,1.93,6.74,.13,36.07,.1,72.13,.11,108.2,0,8.18,.09,16.36-.09,24.53-.04,1.93-.43,4.44-1.67,5.67-10.36,10.35-20.82,20.63-33.4,28.38-.44-3.06-1.25-6.12-1.26-9.19-.11-61.56-.12-123.12-.15-184.68Z"/><path class="e" d="M508.06,674.72c.05-29.55,.13-59.09,.14-88.64,.02-75.44,.01-150.88,0-226.32,0-2.3-.11-4.61-.16-6.91,.38,.14,.82,.21,1.12,.44,5.46,4.22,12.88,7.42,15.77,12.98,2.77,5.33,.95,13.1,.95,19.8,.01,91.24-.06,182.48,.1,273.72,0,4.99-1.35,7.73-6.01,9.4-4.11,1.47-7.95,3.66-11.92,5.53Z"/><path class="c" d="M411.28,593.42c1.62-1.32,3.06-3.02,4.9-3.91,10-4.86,11.86-12.8,11.73-23.44-.62-49.23-.26-98.48-.43-147.72-.02-4.38,1.17-7.52,4.55-10.26,5-4.05,9.74-8.43,15.39-13.36,.22,2.49,.46,4,.46,5.52,.17,96.6,.28,193.2,.57,289.79,.01,4.65-1.38,6.48-5.89,6.48-2.04,0-4.09,.59-6.14,.92v-119.53c-.42-.07-.85-.15-1.27-.22-7.79,8.91-15.58,17.83-23.43,26.82-.53-2.41-.96-4.4-1.4-6.39,.05-1.22,.1-2.44,.15-3.65,.27-.35,.54-.7,.81-1.04Z"/><path class="d" d="M179.77,598.29c4.09,6.92,8.3,13.77,12.23,20.78,4.03,7.19,7.77,14.55,11.63,21.83l-.32,.3c-7.84-6.18-16.14-11.86-23.45-18.62-38.56-35.69-66.05-78.71-83.38-128.21-4.46-12.75-7.95-25.85-12.04-39.29,10.8-.48,20.36-.91,29.93-1.34,2.9,3.18,5.79,6.37,8.69,9.55,.44,.49,.89,.98,1.33,1.47,0,0-.07-.1-.07-.1,0,1.42-.24,2.89,.03,4.25,5.82,29.27,14.56,57.58,28.52,84.05,6.03,11.42,12.9,22.39,19.39,33.57,2.5,3.92,5,7.84,7.5,11.76Z"/><path class="c" d="M281.91,524.62c-.07,7.52-.21,15.04-.21,22.56-.03,42.63,0,85.26-.09,127.88,0,2.54-.99,5.07-1.52,7.6-2.95-1.15-5.89-2.29-8.84-3.44,.07-1.05,.2-2.09,.2-3.14,.01-44.46,.03-88.92,0-133.38,0-5.56-.87-6.3-8.82-8.12v140.92q-15.21-6.13-15.23-22.19c0-46.28,0-92.56,0-138.85,0-2.07,0-4.13,0-7.36,12.02,6.1,23.26,11.8,34.51,17.5Z"/><path class="b" d="M363.25,89.64c-23.11,5.78-46.51,10.63-69.28,17.54-40.41,12.27-76.15,33.19-107.76,61.31-36.12,32.14-62.11,71.11-79.24,116.1-8.37,21.97-13.76,44.77-16.66,68.1-1.24,9.94-1.91,19.95-2.91,29.92-.1,.99-.62,1.93-.95,2.9-6.94-1.98-7.12-6.6-6.54-13.03,2.32-26.12,6.73-51.77,14.68-76.79,13.45-42.34,34.89-79.98,65.02-112.75,34.85-37.89,76.44-65.56,124.73-83.09,24.29-8.82,49.52-13.81,75.22-16.37,1.42-.14,2.88-.02,5-.02-.49,2.28-.9,4.23-1.31,6.17Z"/><path class="e" d="M101.48,423.13c11.63,1.08,22.85-1.61,34.05-4,10.19-2.18,20.27-4.88,30.42-7.26,10.24-2.4,19-7.38,26.54-14.67,8.41-8.14,17-16.1,25.3-24.35,1.62-1.61,2.29-4.16,3.4-6.28,3.17,1.99,6.48,3.78,9.47,6.02,6.76,5.05,7.2,6.71,2.57,13.92-3.72,5.79-7.79,11.44-12.32,16.61-12.23,13.98-25.91,26.5-43.54,33.09-9.47,3.54-19.74,5.71-29.82,6.73-16.2,1.63-32.54,1.82-48.83,2.55-1.79,.08-3.59-.32-5.29-.48,2.78-7.57,5.41-14.73,8.04-21.88Z"/><path class="e" d="M406.03,353.68c5.29-6.64,10.1-13.78,16.11-19.7,2.61-2.58,7.74-2.53,11.65-3.89,19.51-6.76,39.43-12.58,58.33-20.76,11.52-4.98,21.64-13.37,32.05-20.7,16.91-11.91,33.85-23.81,50.18-36.5,11.02-8.57,21.09-18.38,31.38-27.86,2.69-2.48,4.61-5.8,6.88-8.73,1.2-.06,2.41-.13,3.86-.2-.04,7.23-5.04,12.03-8.95,16.37-15.18,16.86-31.28,32.89-46.91,49.34-29.61,31.18-65.88,50.81-107.17,61.54-15.7,4.08-31.6,7.41-47.41,11.08Z"/><path class="b" d="M559.71,448.61c.03,61.56,.04,123.12,.15,184.68,0,3.06,.82,6.12,1.26,9.19-6.2,4.51-12.4,9.01-19.37,14.08-.3-1.95-.57-2.85-.57-3.74,.05-57.54,.15-115.08,.13-172.62,0-4.33,.88-7.83,3.78-11.36,5.27-6.41,9.79-13.45,14.62-20.23Z"/><path class="e" d="M410.32,598.11c.43,1.99,.87,3.98,1.4,6.39,7.86-8.99,15.65-17.91,23.43-26.82,.42,.07,.85,.15,1.27,.22v119.53c-8.42,1.34-16.84,2.69-25.63,4.09-.32-1.85-.68-3.01-.69-4.17-.06-32.26-.08-64.51-.09-96.77,0-.83,.2-1.65,.31-2.48Z"/><path class="e" d="M484.09,684.68c.02-98.55,.1-197.1-.08-295.65-.01-6.39,2.22-10.26,8.94-13.36,0,2.97,0,5.31,0,7.64,0,95.41,0,190.81,0,286.22,0,3.98,.1,7.96,.16,11.95-3.01,1.07-6.01,2.14-9.02,3.21Z"/><path class="b" d="M179.77,598.29c-2.5-3.92-5-7.84-7.5-11.76,11.07,4.18,22.13,8.36,33.2,12.54,.5-.01,1-.02,1.5-.03l-.4-1.36c-3.95-11.46-8.1-22.85-11.79-34.4-7.21-22.57-11.77-45.74-14.8-69.2-.42-3.22-1.69-4.63-4.57-5.7-5.88-2.17-11.72-4.51-17.37-7.19-11.3-5.36-22.48-11-33.7-16.53,0,0,.07,.1,.07,.1-.44-.49-.89-.98-1.33-1.47-2.9-3.18-5.79-6.37-8.69-9.55,4.03-.59,7.35,.4,11.19,2.36,16.36,8.33,33.11,15.88,49.74,23.67,.71,.33,1.61,.26,2.96,.46,0-2.64,.05-5.05-.01-7.46-.13-5-.16-5,6.28-5.46,.45,3.39,1.12,6.82,1.31,10.28,.24,4.42,1.75,7.22,6.45,8.54,11.22,3.15,22.38,6.58,33.41,10.36,6.18,2.12,7.45,.29,5.95,9.74-14.65-4.18-29.19-8.33-44.41-12.67,6.17,44.06,18.91,85.93,36.8,126.51-4.91,1.79-7.89,.68-9.42-3.98-1.59-4.84-4.96-6.79-10.04-8.17-8.51-2.33-16.57-6.32-24.82-9.61Z"/><path class="e" d="M262.62,675.51v-140.92c7.94,1.81,8.81,2.55,8.82,8.12,.03,44.46,.02,88.92,0,133.38,0,1.05-.13,2.09-.2,3.14-2.87-1.24-5.74-2.48-8.62-3.72Z"/><path class="d" d="M589.92,185.3c1.33-1.89,1.69-3.56-.28-5.44-18.07-17.19-36.23-34.25-57.64-47.37-20.45-12.53-42.18-22.26-64.94-29.75-2.49-.82-4.97-1.63-7.35-3.42,3.48-.62,6.95-1.23,10.43-1.85,12.61,4.94,25.46,9.35,37.78,14.94,26.07,11.83,50.01,27.01,70.79,46.95,7.09,6.8,12.63,14.49,16.12,23.61,.7,1.83,.44,4.02,.72,7.12-2.66-2.27-4.14-3.52-5.62-4.78Z"/><path class="e" d="M360.79,701.2c0-45.69,0-91.38,.01-137.07,0-3.26-.73-6.91,4.34-8.55,.26,1.63,.7,3.11,.7,4.58,0,47.16-.04,94.31-.08,141.47-1.66-.14-3.31-.29-4.97-.43Z"/><path class="e" d="M340.68,699.59c4.32-.88,3.73-4.2,3.73-7.32,0-39.35,.03-78.7,.06-118.05,0-3.28-.57-6.84,4.36-8.68,.3,1.72,.79,3.19,.79,4.66,0,43.33-.03,86.65-.07,129.98-2.96-.2-5.91-.39-8.87-.59Z"/><path class="b" d="M60.46,413.15c3.57-.78,5.89-1.27,8.21-1.79,2.44-.55,4.87-1.47,7.32-1.56,1.86-.06,5,.49,5.4,1.56,1.18,3.19-2.22,3.31-4.13,4.15-4.11,1.81-8.3,3.42-12.46,5.12,.22,.57,.43,1.14,.65,1.7,3.93-1.36,7.82-2.88,11.81-4.01,1.56-.44,3.36-.01,5.06,.02-.95,1.38-1.6,3.2-2.89,4.07-5.36,3.61-10.92,6.93-17.22,10.87-.7-2.98-1.41-5.68-1.94-8.42-.71-3.69-1.16-7.43-1.94-11.1-2.07-9.74-1.81-10.51,7.75-13.01,3.78-.99,7.81-1.17,11.75-1.34,1.18-.05,2.41,1.14,3.62,1.75-1.07,1.08-1.96,2.57-3.26,3.14-1.87,.82-4.06,.9-6.07,1.42-4.18,1.07-8.15,2.52-11.66,7.41Z"/><path class="d" d="M464.09,381.8c.02,49.86,.04,99.72,.06,149.58,.02,53.21,.05,106.43,.08,159.64-.39-1.94-1.13-3.88-1.13-5.82-.02-99.34,.01-198.69,.09-298.03,0-1.79,.59-3.58,.9-5.37Z"/><path class="e" d="M409.83,390.55c-1.82,.79-3.73,1.41-5.44,2.38-5.3,3.01-10.52,6.15-15.47,9.07-2.96-2.73,2.32-6.85-2.97-7.76,7.91-3.83,15.81-7.65,23.88-11.56v7.87Z"/><path class="b" d="M63.59,392.3c3.35-2.48,6.55-5.09,10.03-7.24,.95-.58,3.08-.21,4.06,.53,.81,.62,1.36,2.68,.95,3.65-2.5,5.88-9.49,7.3-15.03,3.07Z"/><path class="e" d="M408.78,398.19c.29-1.73,.58-3.46,.87-5.18-.29,1.73-.58,3.46-.87,5.18Z"/><path class="e" d="M404.83,354.72c.32-.29,.64-.58,.96-.87-.32,.29-.64,.58-.96,.87Z"/><path class="e" d="M411.28,593.42c-.27,.35-.54,.69-.81,1.04,.27-.35,.54-.7,.81-1.04Z"/><path class="d" d="M203.63,640.9c.18,.26,.35,.52,.53,.78-.28-.16-.56-.33-.84-.49l.32-.3Z"/><path class="f" d="M120.67,410.89c-.53-2.06-1.5-4.11-1.53-6.18-.42-23.67,.25-47.29,3.93-70.73,14.71,13.24,31.01,24.08,48.91,32.54,3.67,1.74,7.26,3.64,11.11,5.57,3.89-2.86,5.76-7.22,6.58-12.41,5.69-36.23,17.83-70.43,33.08-103.62,.25-.53,.77-.94,1.23-1.48,9.65,4,19.25,7.98,28.93,11.99,1.81-7.62,1.77-7.52-4.64-10.28-5.63-2.42-11.18-5.03-16.69-7.7-1.44-.7-2.63-1.92-4.58-3.4,8.62-14.5,16.81-29.02,25.71-43.07,9.15-14.44,19.7-27.9,30.79-39.78,14.14,5.46,27.66,10.68,41.66,16.1-1.43,4.44-2.95,9.13-4.47,13.84q6.69,1.05,8.77-4.58c.36-.98,.86-1.93,1.09-2.94,1.1-4.87,3.67-5.61,8.62-4.81,10.51,1.7,21.21,2.25,31.83,3.27,1.86,.18,3.71,.38,5.9,.6v99.01c-3.4,0-6.87-.04-10.34,0-5.96,.09-5.96,.11-5.31,6.79,2.84,.13,5.74,.28,8.63,.38,8.49,.31,6.37-1.19,7.88,7.08h5.49c.2-.49,.62-1.04,.6-1.58-.07-3.02,.35-4.86,4.32-5.18,22.31-1.79,44.59-3.91,66.87-6.04,2.14-.2,3.66-.81,5.04,1.85,1.22,2.35,5.51,1.36,7.87-1.2,1.14-1.24,2.51-2.35,3.94-3.25,5.61-3.5,11.28-6.9,16.94-10.33-.22-.39-.44-.78-.65-1.18-6.83,1.34-13.66,2.67-21.26,4.16-5.99-32.91-14.11-64.79-26.16-95.42,14.45-5.6,28.56-11.07,43.96-17.05,7.98,10.12,17.18,20.72,25.14,32.19,9.17,13.22,17.25,27.2,25.75,40.88,1.2,1.93,1.65,4.45,4.98,2.6,2.86-1.59,2.37-3.38,1.24-5.66-9.54-19.2-21.22-37.05-34.42-53.91-5.41-6.91-11.07-13.64-16.42-20.22,8.54-7.8,17.09-15.6,26.29-24.01,18.88,11.29,37.74,24.22,53.22,42.29,.82-1.66,1.42-2.88,2.35-4.78,1.22,1.53,2.24,2.82,3.27,4.12-.84,.94-1.97,1.74-2.46,2.83-3.17,7-4.5,14.11-4.34,22.06,.19,9.26-1.71,18.69-3.77,27.81-.83,3.66-3.89,7.42-6.96,9.85-5.87,4.65-12.15,9.03-18.83,12.38-20.32,10.18-39.14,22.61-56.4,37.26-10.17,8.63-22.48,10.52-34.64,13.33-.41,.09-.84,.1-1.23,.23-14.02,4.87-28.36,5.26-43.03,4-11.91-1.02-22.93,3.3-32.39,9.98-8.53,6.03-16.38,6.85-25.24,1.88-1.25-.7-2.71-1.04-4.29-1.64-5.22,7.08-8.84,15.71-16.87,20.27-.42-.3-.83-.6-1.25-.9,1.32-3.1,2.64-6.21,3.95-9.31,2.11-4.52,4.09-9.1,6.38-13.52,1.64-3.17,1.27-5.24-1.82-7.34-6.04-4.12-11.81-8.64-17.72-12.96-3.45-2.52-6.96-4.97-11.55-8.25,12.15,.5,22.74,.94,33.33,1.38,4.84,.22,9.67,.44,15.21,.69-1.69-5.46-2.53-9.74-4.34-13.56-1.5-3.18,.43-8.28-6.36-9.02,4.22-.94,6.99-1.56,9.78-2.18-3.25-9.42-6.41-18.24-9.32-27.13-1.21-3.69-3.59-5.14-7.09-4.21-4.38,1.17-8.63,2.82-12.94,4.26-.45,.3-.9,.59-1.36,.89h.02c-6.93,2.68-10.71,8.34-13.49,14.74-2.74,6.31-7.03,11.09-13.62,12.85-4.25,1.13-5.19,3.89-4.19,6.91,1.3,3.92,3.84,7.43,5.7,10.83-1.08,3.43-2.28,7.1-3.4,10.79-1.14,3.78-1.65,7.86-3.4,11.32-4.1,8.09-6.45,15.65,1.43,22.97,2.34,2.17-.07,2.56-1.72,2.91-7.9-6.21-14.92-2.03-22.13,1.68-2.26,1.16-5.06,2.14-7.5,1.93-19.04-1.6-33.38,6.51-45.14,20.76-10.53,12.76-21.29,25.35-32.19,37.8-1.74,1.98-4.81,4.1-7.18,4.01-19.82-.77-36.68,7.29-53.09,16.94Zm216.55-188.66l1.57-1.53c-2.13-3.7-4.27-7.4-6.62-11.49,5.07,1.4,7.96,4.4,10.08,8.49,.51,.98,2.21,1.34,3.36,1.98,.41-1.29,1.52-2.94,1.09-3.81-1.17-2.35-2.62-4.86-4.64-6.43-5.91-4.59-13.01-4.61-19.85-3.27-6.71,1.31-13.24,3.56-19.79,5.58-9.92,3.07-18.49,8.67-26.29,15.29-9.17,7.79-12.35,18.48-12.91,30.13-.27,5.58-.25,11.11,2.53,16.41,2.35-5.23,4.49-10.21,6.81-15.1,1.57-3.31,2.68-6.07,.79-10.13-2.46-5.28,.89-8.43,5.43-7.4-.13,2.22-1.04,4.67-.23,6.19,3.76,7,17.31,6.83,21.01,.47-6.17-2.21-12.45-4.46-20.06-7.19,2.27-1.35,3.18-2.34,4.11-2.36,3.13-.06,6.42-.32,9.38,.49,7.42,2.03,11.89-1.31,15.46-7.2-5.38-1.57-10.53-3.06-16.72-4.86,6.44-3.4,12.08-3.18,17.48-1.66,5.35,1.51,10.01,.36,16.22-1.85-5.63-2.8-10.13-5.03-15.14-7.52,6.25-2.88,11.32-.94,16.39,1.76,3.42,1.82,7,3.34,10.51,4.99Zm-62.82,69.87c1.42-7.89,7.17-14.1,8.33-22.14-9.73-.48-10.38-.35-14.08,8.82-2.33,5.79,2.95,9.07,5.75,13.32Zm10.92-6.8c-.46-.12-.93-.24-1.39-.36-1.92,4.02-4.09,7.94-5.62,12.1-.49,1.34,.68,3.29,1.1,4.96,1.25-1.03,3.28-1.86,3.59-3.12,1.09-4.45,1.6-9.04,2.32-13.57Zm-1.82-25.72c-2.91-.04-5.35-4.38-7.7-.14-.54,.97,.51,3.91,1.61,4.52,3.51,1.92,5.31-.17,6.09-4.38Z"/><path class="e" d="M337.01,284.72c-10.59-.44-21.18-.87-33.33-1.38,4.59,3.28,8.1,5.73,11.55,8.25,5.91,4.32,11.68,8.84,17.72,12.96,3.09,2.11,3.46,4.18,1.82,7.34-2.3,4.42-4.27,9.01-6.38,13.52-1.74-3.5-3.17-7.2-5.3-10.45-5.34-8.16-11.17-15.96-19.26-22.21-1.11,16.15,3.1,31.31,8.19,46.16-8.39-3.88-16.25-7.52-24.12-11.16,1.66-.35,4.07-.74,1.72-2.91-7.88-7.31-5.52-14.88-1.43-22.97,1.75-3.46,2.26-7.54,3.4-11.32,1.11-3.69,2.31-7.36,3.4-10.79-1.85-3.4-4.4-6.91-5.7-10.83-1-3.02-.06-5.77,4.19-6.91,6.6-1.76,10.89-6.55,13.62-12.85,2.78-6.4,6.56-12.06,13.49-14.75-1.72,3.01-3.01,6.4-5.25,8.96-3.74,4.26-4.08,8.82-2.85,13.92,3.27,13.53,11.35,22.73,24.5,27.41Z"/><path class="f" d="M576,175.25c.45,.47,.91,.93,1.36,1.4-.45-.47-.91-.93-1.36-1.4Z"/><path class="f" d="M124.51,323.59c3.07-20.39,9.16-39.96,17.86-58.54,6.98-14.93,15.39-29.19,23.28-43.69,.95-1.74,2.64-3.08,3.99-4.6,13.6,14.19,30.04,24.45,47.67,34.01-17.05,35.39-29.1,72.24-35.71,111.44-21.62-9.98-41.28-21.42-57.09-38.63Z"/><path class="f" d="M384.5,183.98c5.04-.39,10-.73,14.96-1.17,9.99-.87,19.98-1.73,29.96-2.76,2.25-.23,3.62-.52,4.7,2.32,11.23,29.59,19.39,59.99,24.76,91.16,.1,.57-.09,1.19-.18,2.19-24.4,4.48-48.93,7.11-74.2,6.78v-98.53Z"/><path class="f" d="M174.12,209.5c2.44-3.81,4.6-7.83,7.35-11.39,13.44-17.42,29.13-32.79,45.53-47.29,8.02-7.09,17.82-12.18,26.82-18.17,3.5,4.42,6.68,9.15,10.6,13.16,3.91,4.01,8.57,7.29,13.48,11.37-22.64,26-41.69,54.39-57.23,85.98-17.65-8.76-33.6-19.08-46.56-33.67Z"/><path class="f" d="M337.59,112.47c6.73-3.67,13.47-7.32,20.18-11.03,2.26-1.25,4.44-2.41,6.78-.23-.77,2.1-1.15,4.46-2.36,6.25-13.01,19.25-24.44,39.36-33.6,60.73-.23,.55-.76,.96-1.89,2.34-12.1-4.52-24.5-9.15-38.03-14.2,10.21-12.73,21.16-22.44,32.05-32.22,5.62-3.88,11.25-7.76,16.87-11.64Z"/><path class="f" d="M478.28,155.77c-8.67,3.52-17.22,7.27-25.99,10.45-4.41,1.6-10.04,4.16-13.54,2.64-3.14-1.36-4.17-7.68-6.06-11.85-7.77-17.2-17.14-33.48-28.03-48.9-.48-.68-1.19-1.28-1.44-2.04-.6-1.84-.99-3.74-1.47-5.62,1.9,.19,4.04-.12,5.65,.66,20.62,10.12,39.31,23.06,55.91,38.94,4.96,4.75,9.5,9.93,14.97,15.7Z"/><path class="f" d="M484.86,150.85c-18.99-20.66-40.62-37.56-64.89-51.16,.26-.55,.52-1.1,.78-1.66,4.26,.56,8.57,.83,12.76,1.72,24.7,5.25,48.24,13.72,70.48,25.72,4.99,2.69,5.32,3.74,1.9,8.35-5.35,7.2-12.63,12.1-21.02,17.02Z"/><path class="f" d="M261.27,127.61c24.43-14.16,50.16-24.62,78.3-28.15,.3,.45,.61,.89,.91,1.34-2.02,2.15-4.03,4.3-6.05,6.45-6.25,4.67-12.5,9.35-18.75,14.02-11.02,9.55-22.03,19.09-33.5,29.03-7.82-6.44-17.33-11.72-20.9-22.68Z"/><path class="e" d="M315.67,121.26c6.25-4.67,12.5-9.35,18.75-14.02,1.06,1.74,2.11,3.49,3.17,5.23-5.62,3.88-11.25,7.76-16.87,11.64-1.68-.95-3.37-1.91-5.05-2.86Z"/><path class="c" d="M301.8,454.98c.75-4.2,1.35-7.27,5.85-7.79,3.53-.41,6.93,1.79,7.45,6.02,.44,3.59,.06,7.5-.96,10.98-1.17,3.95-5.28,4.56-7.56,1.16-2.09-3.12-3.23-6.89-4.78-10.37Z"/><path class="c" d="M316.88,486.39c-.68,2.3-1.24,5.43-2.52,8.23-1.67,3.65-4.53,3.75-6.29,.03-1.46-3.09-2.04-6.67-2.6-10.1-.59-3.62,1.11-6.49,4.82-6.71,3.61-.21,5.42,2.64,6.3,5.91,.16,.6,.14,1.24,.29,2.64Z"/><path class="f" d="M205.48,599.07c-11.07-4.18-22.13-8.36-33.2-12.54-6.49-11.18-13.36-22.15-19.39-33.57-13.97-26.47-22.71-54.78-28.52-84.05-.27-1.37-.03-2.83-.03-4.25,11.23,5.53,22.4,11.17,33.7,16.53,5.66,2.68,11.5,5.02,17.37,7.19,2.88,1.06,4.16,2.48,4.57,5.7,3.03,23.47,7.59,46.64,14.8,69.2,3.69,11.54,7.85,22.94,11.79,34.4-.37,.46-.73,.93-1.1,1.39Z"/><path class="f" d="M123.07,463.29c.44,.49,.89,.98,1.33,1.47-.44-.49-.89-.98-1.33-1.47Z"/><path class="f" d="M206.58,597.67l.4,1.36c-.5,0-1,.02-1.5,.03,.37-.46,.73-.93,1.1-1.39Z"/><path class="b" d="M337.22,222.23c-3.51-1.65-7.09-3.17-10.51-4.99-5.08-2.7-10.15-4.65-16.39-1.76,5.01,2.49,9.5,4.72,15.14,7.52-6.2,2.21-10.87,3.35-16.22,1.85-5.41-1.52-11.05-1.74-17.48,1.66,6.19,1.8,11.34,3.3,16.72,4.86-3.57,5.89-8.04,9.22-15.46,7.2-2.96-.81-6.25-.55-9.38-.49-.93,.02-1.84,1.01-4.11,2.36,7.6,2.72,13.88,4.97,20.06,7.19-3.71,6.36-17.25,6.53-21.01-.47-.82-1.52,.1-3.97,.23-6.19-4.54-1.04-7.88,2.12-5.43,7.4,1.89,4.07,.78,6.82-.79,10.13-2.32,4.9-4.47,9.88-6.81,15.1-2.79-5.29-2.8-10.83-2.53-16.41,.56-11.65,3.74-22.34,12.91-30.13,7.79-6.62,16.37-12.22,26.29-15.29,6.55-2.03,13.09-4.27,19.79-5.58,6.85-1.34,13.94-1.32,19.85,3.27,2.02,1.57,3.47,4.08,4.64,6.43,.43,.87-.68,2.52-1.09,3.81-1.15-.64-2.86-1-3.36-1.98-2.12-4.1-5.01-7.09-10.08-8.49,2.36,4.09,4.49,7.79,6.62,11.49l-1.57,1.53Z"/><path class="c" d="M337.01,284.72c-13.16-4.68-21.24-13.88-24.5-27.41-1.23-5.1-.89-9.66,2.85-13.92,2.24-2.55,3.53-5.94,5.25-8.96,0,0-.02,.01-.02,.01,.45-.3,.9-.59,1.36-.89,4.31-1.44,8.56-3.09,12.94-4.26,3.51-.93,5.88,.52,7.09,4.21,2.91,8.9,6.07,17.71,9.32,27.13-2.79,.62-5.55,1.24-9.78,2.18,6.79,.74,4.85,5.84,6.36,9.02,1.81,3.82,2.65,8.1,4.34,13.56-5.54-.25-10.37-.47-15.21-.69Zm2.04-44.08c-6.63,.51-13.39-2.06-19.41,3.44,6,2.07,11.73,4.04,17.58,6.06,.72-3.71,1.21-6.26,1.83-9.5Z"/><path class="e" d="M274.4,292.1c-2.8-4.25-8.08-7.52-5.75-13.32,3.7-9.18,4.34-9.31,14.08-8.82-1.16,8.04-6.91,14.25-8.33,22.14Z"/><path class="e" d="M285.32,285.31c-.73,4.54-1.23,9.13-2.32,13.57-.31,1.26-2.35,2.09-3.59,3.12-.41-1.67-1.59-3.62-1.1-4.96,1.53-4.16,3.7-8.08,5.62-12.1,.46,.12,.93,.24,1.39,.36Z"/><path class="e" d="M283.5,259.59c-.78,4.2-2.58,6.3-6.09,4.38-1.1-.6-2.15-3.54-1.61-4.52,2.36-4.24,4.79,.09,7.7,.14Z"/><path class="e" d="M321.95,233.55c-.45,.3-.9,.59-1.36,.89,.45-.3,.9-.59,1.36-.89Z"/><path class="f" d="M339.04,240.63c-.63,3.24-1.12,5.79-1.83,9.5-5.85-2.02-11.58-3.99-17.58-6.06,6.02-5.5,12.78-2.93,19.41-3.44Z"/></svg>